<?xml version="1.0" encoding="UTF-8" standalone="no"?>
<!DOCTYPE svg PUBLIC "-//W3C//DTD SVG 1.1//EN" "http://www.w3.org/Graphics/SVG/1.1/DTD/svg11.dtd">
<svg width="100%" height="100%" viewBox="0 0 1752 1790" version="1.1" xmlns="http://www.w3.org/2000/svg" xmlns:xlink="http://www.w3.org/1999/xlink" xml:space="preserve" xmlns:serif="http://www.serif.com/" style="fill-rule:evenodd;clip-rule:evenodd;stroke-miterlimit:10;">
    <g transform="matrix(1,0,0,1,366.327,-2114.41)">
        <g transform="matrix(2,0,0,2,0,2678.74)">
            <g transform="matrix(1,0,0,1,284.559,650.305)">
                <path d="M0,-926.937C0,-926.937 31.344,-936.049 87.58,-911.441C143.816,-886.833 195.797,-853.874 183.819,-804.958C171.841,-756.041 75.204,-725.178 68.098,-681.061C60.992,-636.943 50.54,-576.731 100.803,-572.158C151.065,-567.585 235.363,-586.935 284.545,-567.539C333.728,-548.143 385.673,-510.348 401.23,-436.074C416.787,-361.8 374.855,-186.489 273.024,-86.673C171.194,13.143 -227.186,-64.84 -324.909,-187.449C-422.633,-310.059 -487.133,-378.782 -456.36,-482.035C-433.458,-558.875 -305.435,-551.982 -290.01,-672.766C-274.585,-793.549 -312.59,-854.726 -201.037,-897.403C-89.485,-940.08 0,-926.937 0,-926.937Z" style="fill:none;fill-rule:nonzero;stroke:rgb(29,29,27);stroke-width:0.72px;"/>
            </g>
        </g>
        <g transform="matrix(2,0,0,2,0,2678.74)">
            <g transform="matrix(1,0,0,1,-166.71,205.307)">
                <path d="M0,-36.715C22.653,-112.766 149.408,-105.921 164.647,-225.515C179.885,-345.109 142.237,-405.696 252.685,-447.951C363.133,-490.206 451.723,-477.195 451.713,-477.21C451.703,-477.224 482.728,-486.262 538.418,-461.908C594.107,-437.553 645.602,-404.914 633.751,-356.492C621.9,-308.069 526.231,-277.525 519.184,-233.853C512.137,-190.181 501.765,-130.573 551.52,-126.057C601.276,-121.541 684.732,-140.717 733.435,-121.533C782.138,-102.35 833.605,-64.966 849.048,8.563C864.49,82.093 823.06,255.746 722.243,354.619C621.427,453.491 226.997,376.307 130.218,254.933C33.444,133.553 -30.447,65.489 0,-36.715Z" style="fill:none;fill-rule:nonzero;stroke:rgb(29,29,27);stroke-width:0.71px;"/>
            </g>
        </g>
        <g transform="matrix(2,0,0,2,0,2678.74)">
            <g transform="matrix(1,0,0,1,-161.619,203.211)">
                <path d="M0,-36.297C22.404,-111.56 147.892,-104.763 162.944,-223.167C177.997,-341.571 140.704,-401.569 250.048,-443.402C359.391,-485.234 447.086,-472.356 447.066,-472.385C447.046,-472.414 477.753,-481.377 532.896,-457.277C588.039,-433.176 639.048,-400.856 627.324,-352.928C615.599,-304.999 520.899,-274.774 513.911,-231.547C506.922,-188.321 496.63,-129.317 545.879,-124.858C595.128,-120.4 677.742,-139.401 725.965,-120.43C774.188,-101.459 825.177,-64.486 840.506,8.298C855.835,81.083 814.906,253.08 715.103,351.008C615.3,448.937 224.821,372.552 128.986,252.412C33.163,132.261 -30.121,64.857 0,-36.297Z" style="fill:none;fill-rule:nonzero;stroke:rgb(29,29,27);stroke-width:0.71px;"/>
            </g>
        </g>
        <g transform="matrix(2,0,0,2,0,2678.74)">
            <g transform="matrix(1,0,0,1,-156.529,202.116)">
                <path d="M0,-35.88C22.155,-110.355 146.376,-103.605 161.242,-220.82C176.108,-338.034 139.172,-397.443 247.411,-438.853C355.65,-480.263 442.45,-467.517 442.419,-467.561C442.389,-467.604 472.778,-476.493 527.375,-452.646C581.971,-428.8 632.494,-396.799 620.896,-349.365C609.299,-301.931 515.567,-272.024 508.637,-229.243C501.708,-186.462 491.495,-128.062 540.237,-123.661C588.979,-119.26 670.752,-138.086 718.495,-119.328C766.239,-100.57 816.75,-64.008 831.965,8.032C847.18,80.072 806.751,250.412 707.962,347.397C609.173,444.383 222.644,368.796 127.754,249.89C32.881,130.969 -29.794,64.225 0,-35.88Z" style="fill:none;fill-rule:nonzero;stroke:rgb(29,29,27);stroke-width:0.7px;"/>
            </g>
        </g>
        <g transform="matrix(2,0,0,2,0,2678.74)">
            <g transform="matrix(1,0,0,1,-151.438,201.02)">
                <path d="M0,-35.462C21.907,-109.149 144.86,-102.447 159.54,-218.471C174.219,-334.496 137.639,-393.317 244.774,-434.304C351.908,-475.291 437.813,-462.678 437.773,-462.736C437.732,-462.793 467.803,-471.608 521.853,-448.015C575.903,-424.423 625.939,-392.742 614.469,-345.801C602.998,-298.861 510.234,-269.273 503.364,-226.938C496.493,-184.602 486.36,-126.806 534.596,-122.462C582.831,-118.119 663.762,-136.771 711.026,-118.225C758.289,-99.679 808.323,-63.528 823.423,7.767C838.524,79.063 798.597,247.745 700.822,343.787C603.047,439.829 220.467,365.041 126.521,247.37C32.599,129.678 -29.468,63.593 0,-35.462Z" style="fill:none;fill-rule:nonzero;stroke:rgb(29,29,27);stroke-width:0.69px;"/>
            </g>
        </g>
        <g transform="matrix(2,0,0,2,0,2678.74)">
            <g transform="matrix(1,0,0,1,-146.347,199.925)">
                <path d="M0,-35.044C21.658,-107.943 143.344,-101.288 157.837,-216.123C172.33,-330.958 136.107,-389.19 242.136,-429.754C348.166,-470.319 433.176,-457.838 433.126,-457.911C433.075,-457.983 462.828,-466.723 516.332,-443.384C569.835,-420.045 619.385,-388.684 608.041,-342.238C596.698,-295.792 504.902,-266.522 498.09,-224.632C491.278,-182.742 481.226,-125.55 528.954,-121.264C576.682,-116.978 656.771,-135.455 703.556,-117.122C750.34,-98.789 799.896,-63.049 814.882,7.502C829.868,78.053 790.443,245.078 693.681,340.177C596.92,435.275 218.29,361.285 125.289,244.849C32.318,128.387 -29.141,62.962 0,-35.044Z" style="fill:none;fill-rule:nonzero;stroke:rgb(29,29,27);stroke-width:0.69px;"/>
            </g>
        </g>
        <g transform="matrix(2,0,0,2,0,2678.74)">
            <g transform="matrix(1,0,0,1,-141.257,198.829)">
                <path d="M0,-34.626C21.41,-106.737 141.828,-100.13 156.135,-213.775C170.441,-327.42 134.574,-385.063 239.499,-425.205C344.425,-465.347 428.54,-452.999 428.479,-453.086C428.418,-453.172 457.853,-461.838 510.81,-438.753C563.767,-415.668 612.83,-384.626 601.614,-338.674C590.397,-292.722 499.57,-263.771 492.817,-222.327C486.063,-180.882 476.091,-124.294 523.312,-120.065C570.534,-115.837 649.781,-134.139 696.086,-116.019C742.39,-97.898 791.468,-62.569 806.341,7.237C821.213,77.043 782.288,242.412 686.541,336.566C590.794,430.721 216.114,357.53 124.057,242.329C32.036,127.095 -28.815,62.33 0,-34.626Z" style="fill:none;fill-rule:nonzero;stroke:rgb(29,29,27);stroke-width:0.68px;"/>
            </g>
        </g>
        <g transform="matrix(2,0,0,2,0,2678.74)">
            <g transform="matrix(1,0,0,1,-136.166,197.733)">
                <path d="M0,-34.208C21.161,-105.53 140.313,-98.971 154.432,-211.427C168.552,-323.883 133.041,-380.936 236.862,-420.655C340.683,-460.375 423.903,-448.159 423.832,-448.26C423.762,-448.362 452.878,-456.953 505.289,-434.122C557.699,-411.291 606.276,-380.568 595.186,-335.11C584.096,-289.652 494.238,-261.021 487.543,-220.021C480.849,-179.022 470.956,-123.038 517.671,-118.867C564.385,-114.695 642.791,-132.824 688.616,-114.916C734.441,-97.008 783.041,-62.09 797.799,6.972C812.557,76.034 774.134,239.745 679.401,332.956C584.667,426.167 213.937,353.775 122.825,239.808C31.754,125.804 -28.488,61.698 0,-34.208Z" style="fill:none;fill-rule:nonzero;stroke:rgb(29,29,27);stroke-width:0.67px;"/>
            </g>
        </g>
        <g transform="matrix(2,0,0,2,0,2678.74)">
            <g transform="matrix(1,0,0,1,-131.076,196.637)">
                <path d="M0,-33.79C20.912,-104.324 138.797,-97.813 152.73,-209.079C166.663,-320.345 131.509,-376.809 234.225,-416.106C336.942,-455.403 419.267,-443.32 419.186,-443.436C419.105,-443.551 447.903,-452.068 499.767,-429.491C551.631,-406.914 599.721,-376.51 588.759,-331.547C577.796,-286.583 488.906,-258.27 482.27,-217.716C475.634,-177.162 465.821,-121.782 512.029,-117.668C558.237,-113.554 635.801,-131.508 681.146,-113.813C726.491,-96.117 774.614,-61.61 789.258,6.707C803.902,75.024 765.98,237.078 672.26,329.346C578.54,421.613 211.76,350.02 121.593,237.287C31.473,124.513 -28.161,61.067 0,-33.79Z" style="fill:none;fill-rule:nonzero;stroke:rgb(29,29,27);stroke-width:0.66px;"/>
            </g>
        </g>
        <g transform="matrix(2,0,0,2,0,2678.74)">
            <g transform="matrix(1,0,0,1,-125.985,195.542)">
                <path d="M0,-33.373C20.664,-103.119 137.281,-96.655 151.027,-206.731C164.774,-316.808 129.976,-372.683 231.588,-411.557C333.2,-450.431 414.63,-438.481 414.539,-438.611C414.448,-438.742 442.928,-447.184 494.245,-424.861C545.563,-402.537 593.167,-372.454 582.331,-327.984C571.495,-283.514 483.574,-255.52 476.996,-215.412C470.419,-175.303 460.686,-120.527 506.387,-116.471C552.088,-112.414 628.811,-130.193 673.676,-112.71C718.542,-95.228 766.187,-61.131 780.716,6.441C795.246,74.013 757.825,234.411 665.12,325.734C572.414,417.058 209.584,346.263 120.361,234.766C31.191,123.221 -27.835,60.434 0,-33.373Z" style="fill:none;fill-rule:nonzero;stroke:rgb(29,29,27);stroke-width:0.66px;"/>
            </g>
        </g>
        <g transform="matrix(2,0,0,2,0,2678.74)">
            <g transform="matrix(1,0,0,1,-120.895,194.447)">
                <path d="M0,-32.955C20.415,-101.913 135.765,-95.496 149.325,-204.383C162.885,-313.27 128.443,-368.556 228.951,-407.008C329.459,-445.459 409.993,-433.642 409.892,-433.786C409.791,-433.931 437.953,-442.299 488.724,-420.23C539.495,-398.16 586.613,-368.396 575.904,-324.42C565.195,-280.444 478.241,-252.769 471.723,-213.106C465.204,-173.443 455.551,-119.271 500.746,-115.272C545.94,-111.273 621.82,-128.877 666.206,-111.607C710.592,-94.337 757.759,-60.652 772.175,6.176C786.591,73.003 749.671,231.744 657.979,322.124C566.287,412.504 207.407,342.508 119.129,232.245C30.909,121.93 -27.508,59.802 0,-32.955Z" style="fill:none;fill-rule:nonzero;stroke:rgb(29,29,27);stroke-width:0.65px;"/>
            </g>
        </g>
        <g transform="matrix(2,0,0,2,0,2678.74)">
            <g transform="matrix(1,0,0,1,-115.804,193.351)">
                <path d="M0,-32.537C20.167,-100.707 134.249,-94.338 147.622,-202.035C160.996,-309.732 126.911,-364.429 226.314,-402.458C325.717,-440.487 405.357,-428.802 405.245,-428.961C405.134,-429.12 432.978,-437.415 483.202,-415.599C533.427,-393.783 580.058,-364.338 569.476,-320.856C558.894,-277.375 472.909,-250.018 466.449,-210.801C459.99,-171.584 450.417,-118.015 495.104,-114.074C539.792,-110.132 614.83,-127.562 658.737,-110.504C702.643,-93.447 749.332,-60.172 763.634,5.911C777.935,71.994 741.517,229.077 650.839,318.514C560.161,407.95 205.23,338.753 117.896,229.725C30.627,120.638 -27.182,59.171 0,-32.537Z" style="fill:none;fill-rule:nonzero;stroke:rgb(29,29,27);stroke-width:0.65px;"/>
            </g>
        </g>
        <g transform="matrix(2,0,0,2,0,2678.74)">
            <g transform="matrix(1,0,0,1,-110.713,192.256)">
                <path d="M0,-32.12C19.918,-99.502 132.733,-93.18 145.92,-199.688C159.107,-306.195 125.378,-360.303 223.677,-397.909C321.975,-435.516 400.72,-423.964 400.599,-424.137C400.477,-424.311 428.003,-432.531 477.681,-410.969C527.359,-389.407 573.504,-360.281 563.049,-317.294C552.594,-274.306 467.577,-247.268 461.176,-208.497C454.775,-169.724 445.282,-116.76 489.462,-112.876C533.643,-108.992 607.84,-126.247 651.267,-109.402C694.693,-92.557 740.905,-59.694 755.092,5.645C769.28,70.983 733.362,226.409 643.698,314.903C554.034,403.396 203.053,334.996 116.664,227.203C30.346,119.346 -26.855,58.538 0,-32.12Z" style="fill:none;fill-rule:nonzero;stroke:rgb(29,29,27);stroke-width:0.64px;"/>
            </g>
        </g>
        <g transform="matrix(2,0,0,2,0,2678.74)">
            <g transform="matrix(1,0,0,1,-105.623,191.16)">
                <path d="M0,-31.702C19.669,-98.296 131.217,-92.022 144.218,-197.34C157.218,-302.657 123.846,-356.176 221.04,-393.36C318.234,-430.544 396.083,-419.125 395.952,-419.312C395.82,-419.5 423.028,-427.646 472.159,-406.338C521.291,-385.029 566.949,-356.223 556.621,-313.73C546.293,-271.237 462.245,-244.517 455.903,-206.191C449.56,-167.865 440.147,-115.504 483.821,-111.677C527.495,-107.851 600.85,-124.931 643.797,-108.299C686.744,-91.667 732.477,-59.214 746.551,5.38C760.624,69.973 725.208,223.743 636.558,311.292C547.907,398.842 200.877,331.241 115.432,224.683C30.064,118.055 -26.529,57.907 0,-31.702Z" style="fill:none;fill-rule:nonzero;stroke:rgb(29,29,27);stroke-width:0.63px;"/>
            </g>
        </g>
        <g transform="matrix(2,0,0,2,0,2678.74)">
            <g transform="matrix(1,0,0,1,-100.532,190.064)">
                <path d="M0,-31.284C19.421,-97.09 129.701,-90.863 142.515,-194.991C155.329,-299.12 122.313,-352.049 218.403,-388.811C314.492,-425.572 391.447,-414.285 391.305,-414.487C391.164,-414.69 418.053,-422.761 466.638,-401.707C515.222,-380.652 560.395,-352.166 550.194,-310.166C539.993,-268.167 456.913,-241.767 450.629,-203.886C444.345,-166.005 435.012,-114.248 478.179,-110.479C521.346,-106.709 593.86,-123.616 636.327,-107.196C678.794,-90.776 724.05,-58.735 738.009,5.114C751.969,68.964 717.054,221.076 629.417,307.682C541.781,394.288 198.7,327.486 114.2,222.162C29.782,116.764 -26.202,57.275 0,-31.284Z" style="fill:none;fill-rule:nonzero;stroke:rgb(29,29,27);stroke-width:0.62px;"/>
            </g>
        </g>
        <g transform="matrix(2,0,0,2,0,2678.74)">
            <g transform="matrix(1,0,0,1,-95.4414,188.968)">
                <path d="M0,-30.866C19.172,-95.884 128.185,-89.705 140.813,-192.643C153.441,-295.582 120.78,-347.922 215.765,-384.261C310.751,-420.6 386.81,-409.446 386.658,-409.662C386.507,-409.879 413.078,-417.876 461.116,-397.075C509.154,-376.275 553.841,-348.108 543.766,-306.603C533.692,-265.097 451.581,-239.016 445.356,-201.58C439.131,-164.145 429.877,-112.992 472.537,-109.28C515.198,-105.568 586.87,-122.3 628.857,-106.093C670.845,-89.886 715.623,-58.255 729.468,4.85C743.313,67.954 708.9,218.409 622.277,304.072C535.654,389.734 196.523,323.731 112.968,219.641C29.501,115.473 -25.876,56.643 0,-30.866Z" style="fill:none;fill-rule:nonzero;stroke:rgb(29,29,27);stroke-width:0.62px;"/>
            </g>
        </g>
        <g transform="matrix(2,0,0,2,0,2678.74)">
            <g transform="matrix(1,0,0,1,-90.3509,187.873)">
                <path d="M0,-30.448C18.924,-94.677 126.669,-88.546 139.11,-190.295C151.552,-292.044 119.248,-343.795 213.128,-379.711C307.009,-415.628 382.174,-404.606 382.012,-404.837C381.85,-405.068 408.103,-412.991 455.595,-392.444C503.086,-371.898 547.286,-344.05 537.339,-303.039C527.392,-262.028 446.248,-236.265 440.082,-199.275C433.916,-162.285 424.742,-111.737 466.896,-108.082C509.049,-104.427 579.879,-120.984 621.388,-104.99C662.896,-88.995 707.195,-57.775 720.927,4.585C734.658,66.944 700.745,215.743 615.136,300.461C529.528,385.18 194.347,319.975 111.736,217.121C29.219,114.181 -25.549,56.012 0,-30.448Z" style="fill:none;fill-rule:nonzero;stroke:rgb(29,29,27);stroke-width:0.61px;"/>
            </g>
        </g>
        <g transform="matrix(2,0,0,2,0,2678.74)">
            <g transform="matrix(1,0,0,1,-85.2602,186.777)">
                <path d="M0,-30.03C18.675,-93.471 125.153,-87.388 137.408,-187.947C149.663,-288.506 117.715,-339.668 210.491,-375.162C303.267,-410.656 377.537,-399.767 377.365,-400.012C377.193,-400.258 403.128,-408.106 450.073,-387.813C497.018,-367.52 540.732,-339.992 530.911,-299.475C521.091,-258.958 440.916,-233.514 434.809,-196.969C428.701,-160.425 419.607,-110.481 461.254,-106.883C502.901,-103.286 572.889,-119.669 613.918,-103.887C654.946,-88.105 698.768,-57.296 712.385,4.319C726.002,65.935 692.591,213.076 607.996,296.851C523.401,380.626 192.17,316.22 110.504,214.6C28.937,112.89 -25.223,55.38 0,-30.03Z" style="fill:none;fill-rule:nonzero;stroke:rgb(29,29,27);stroke-width:0.6px;"/>
            </g>
        </g>
        <g transform="matrix(2,0,0,2,0,2678.74)">
            <g transform="matrix(1,0,0,1,-80.1696,185.681)">
                <path d="M0,-29.612C18.426,-92.265 123.637,-86.229 135.705,-185.598C147.774,-284.968 116.183,-335.541 207.854,-370.612C299.526,-405.684 372.9,-394.927 372.718,-395.187C372.536,-395.447 398.153,-403.221 444.552,-383.182C490.95,-363.143 534.177,-335.934 524.484,-295.911C514.79,-255.888 435.584,-230.763 429.535,-194.664C423.486,-158.565 414.473,-109.225 455.612,-105.685C496.752,-102.145 565.899,-118.353 606.448,-102.784C646.996,-87.214 690.341,-56.816 703.844,4.054C717.347,64.925 684.437,210.409 600.855,293.241C517.274,376.072 189.993,312.465 109.271,212.08C28.656,111.599 -24.896,54.748 0,-29.612Z" style="fill:none;fill-rule:nonzero;stroke:rgb(29,29,27);stroke-width:0.6px;"/>
            </g>
        </g>
        <g transform="matrix(2,0,0,2,0,2678.74)">
            <g transform="matrix(1,0,0,1,-75.0789,184.585)">
                <path d="M0,-29.194C18.178,-91.059 122.121,-85.07 134.003,-183.25C145.885,-281.43 114.65,-331.414 205.217,-366.063C295.784,-400.712 368.264,-390.088 368.072,-390.362C367.879,-390.637 393.178,-398.336 439.03,-378.551C484.882,-358.766 527.623,-331.877 518.056,-292.348C508.49,-252.819 430.252,-228.012 424.262,-192.359C418.271,-156.705 409.338,-107.969 449.971,-104.486C490.604,-101.004 558.909,-117.037 598.978,-101.68C639.047,-86.324 681.914,-56.337 695.302,3.789C708.691,63.915 676.282,207.742 593.715,289.63C511.148,371.518 187.816,308.709 108.039,209.559C28.374,110.308 -24.57,54.117 0,-29.194Z" style="fill:none;fill-rule:nonzero;stroke:rgb(29,29,27);stroke-width:0.59px;"/>
            </g>
        </g>
        <g transform="matrix(2,0,0,2,0,2678.74)">
            <g transform="matrix(1,0,0,1,-69.9884,183.489)">
                <path d="M0,-28.776C17.929,-89.853 120.605,-83.912 132.3,-180.902C143.996,-277.892 113.117,-327.287 202.58,-361.513C292.043,-395.74 363.627,-385.248 363.425,-385.537C363.223,-385.826 388.203,-393.451 433.509,-373.92C478.814,-354.389 521.068,-327.819 511.629,-288.784C502.189,-249.749 424.92,-225.262 418.988,-190.053C413.057,-154.845 404.203,-106.713 444.329,-103.288C484.455,-99.863 551.919,-115.722 591.508,-100.577C631.097,-85.433 673.486,-55.857 686.761,3.524C700.036,62.906 668.128,205.076 586.575,286.02C505.021,366.964 185.64,304.954 106.807,207.038C28.092,109.016 -24.243,53.485 0,-28.776Z" style="fill:none;fill-rule:nonzero;stroke:rgb(29,29,27);stroke-width:0.58px;"/>
            </g>
        </g>
        <g transform="matrix(2,0,0,2,0,2678.74)">
            <g transform="matrix(1,0,0,1,-64.8978,182.394)">
                <path d="M0,-28.359C17.681,-88.648 119.089,-82.754 130.598,-178.555C142.107,-274.355 111.585,-323.161 199.943,-356.965C288.301,-390.769 358.99,-380.41 358.778,-380.713C358.566,-381.017 383.228,-388.567 427.987,-369.29C472.746,-350.013 514.514,-323.762 505.201,-285.221C495.889,-246.68 419.588,-222.512 413.715,-187.749C407.842,-152.986 399.068,-105.458 438.687,-102.09C478.307,-98.722 544.929,-114.407 584.038,-99.475C623.148,-84.544 665.059,-55.379 678.219,3.258C691.38,61.895 659.974,202.408 579.434,282.409C498.895,362.41 183.463,301.198 105.575,204.517C27.81,107.724 -23.916,52.852 0,-28.359Z" style="fill:none;fill-rule:nonzero;stroke:rgb(29,29,27);stroke-width:0.58px;"/>
            </g>
        </g>
        <g transform="matrix(2,0,0,2,0,2678.74)">
            <g transform="matrix(1,0,0,1,-59.8071,181.299)">
                <path d="M0,-27.941C17.432,-87.442 117.573,-81.596 128.895,-176.207C140.218,-270.818 110.052,-319.034 197.306,-352.415C284.559,-385.797 354.354,-375.57 354.131,-375.888C353.909,-376.206 378.253,-383.682 422.465,-364.659C466.678,-345.635 507.96,-319.704 498.774,-281.658C489.588,-243.611 414.255,-219.761 408.441,-185.443C402.627,-151.126 393.933,-104.202 433.046,-100.892C472.158,-97.581 537.938,-113.091 576.568,-98.372C615.198,-83.653 656.632,-54.899 669.678,2.993C682.724,60.885 651.819,199.741 572.294,278.798C492.768,357.856 181.286,297.443 104.343,201.996C27.529,106.433 -23.59,52.221 0,-27.941Z" style="fill:none;fill-rule:nonzero;stroke:rgb(29,29,27);stroke-width:0.57px;"/>
            </g>
        </g>
        <g transform="matrix(2,0,0,2,0,2678.74)">
            <g transform="matrix(1,0,0,1,-54.7166,180.203)">
                <path d="M0,-27.523C17.183,-86.236 116.057,-80.437 127.193,-173.858C138.329,-267.28 108.519,-314.907 194.669,-347.866C280.818,-380.825 349.717,-370.731 349.485,-371.063C349.252,-371.395 373.278,-378.797 416.944,-360.028C460.61,-341.258 501.405,-315.646 492.346,-278.094C483.288,-240.541 408.923,-217.01 403.168,-183.138C397.412,-149.266 388.799,-102.946 427.404,-99.693C466.01,-96.44 530.948,-111.776 569.099,-97.269C607.249,-82.763 648.204,-54.419 661.137,2.728C674.069,59.875 643.665,197.075 565.153,275.188C486.641,353.302 179.109,293.687 103.111,199.476C27.247,105.142 -23.263,51.589 0,-27.523Z" style="fill:none;fill-rule:nonzero;stroke:rgb(29,29,27);stroke-width:0.56px;"/>
            </g>
        </g>
        <g transform="matrix(2,0,0,2,0,2678.74)">
            <g transform="matrix(1,0,0,1,-49.6259,179.107)">
                <path d="M0,-27.105C16.935,-85.03 114.541,-79.279 125.49,-171.51C136.44,-263.742 106.987,-310.78 192.032,-343.316C277.076,-375.853 345.081,-365.891 344.838,-366.238C344.595,-366.585 368.303,-373.912 411.422,-355.397C454.542,-336.881 494.851,-311.589 485.919,-274.53C476.987,-237.472 403.591,-214.259 397.894,-180.833C392.198,-147.406 383.664,-101.69 421.763,-98.495C459.861,-95.299 523.958,-110.46 561.629,-96.166C599.299,-81.872 639.777,-53.94 652.595,2.463C665.413,58.866 635.511,194.408 558.013,271.578C480.515,348.748 176.933,289.932 101.878,196.955C26.965,103.851 -22.937,50.958 0,-27.105Z" style="fill:none;fill-rule:nonzero;stroke:rgb(29,29,27);stroke-width:0.56px;"/>
            </g>
        </g>
        <g transform="matrix(2,0,0,2,0,2678.74)">
            <g transform="matrix(1,0,0,1,-44.5353,178.012)">
                <path d="M0,-26.688C16.686,-83.825 113.025,-78.121 123.788,-169.163C134.551,-260.205 105.454,-306.654 189.394,-338.768C273.335,-370.881 340.444,-361.053 340.191,-361.414C339.938,-361.775 363.328,-369.029 405.901,-350.767C448.474,-332.505 488.296,-307.532 479.491,-270.967C470.687,-234.403 398.259,-211.509 392.621,-178.528C386.983,-145.547 378.529,-100.435 416.121,-97.297C453.713,-94.159 516.968,-109.145 554.159,-95.064C591.35,-80.983 631.35,-53.461 644.054,2.197C656.758,57.855 627.356,191.74 550.872,267.967C474.388,344.193 174.756,286.176 100.646,194.433C26.684,102.558 -22.61,50.325 0,-26.688Z" style="fill:none;fill-rule:nonzero;stroke:rgb(29,29,27);stroke-width:0.55px;"/>
            </g>
        </g>
        <g transform="matrix(2,0,0,2,0,2678.74)">
            <g transform="matrix(1,0,0,1,-39.4447,176.916)">
                <path d="M0,-26.27C16.438,-82.618 111.509,-76.963 122.086,-166.815C132.662,-256.667 103.921,-302.527 186.757,-334.218C269.593,-365.909 335.807,-356.213 335.544,-356.589C335.281,-356.965 358.353,-364.143 400.379,-346.136C442.406,-328.127 481.742,-303.474 473.064,-267.404C464.386,-231.333 392.927,-208.758 387.348,-176.223C381.768,-143.687 373.394,-99.179 410.479,-96.098C447.565,-93.018 509.978,-107.829 546.689,-93.961C583.4,-80.092 622.923,-52.982 635.512,1.932C648.102,56.845 619.202,189.073 543.732,264.356C468.262,339.639 172.579,282.421 99.414,191.913C26.402,101.267 -22.284,49.693 0,-26.27Z" style="fill:none;fill-rule:nonzero;stroke:rgb(29,29,27);stroke-width:0.54px;"/>
            </g>
        </g>
        <g transform="matrix(2,0,0,2,0,2678.74)">
            <g transform="matrix(1,0,0,1,-34.3541,175.821)">
                <path d="M0,-25.852C16.189,-81.412 109.993,-75.804 120.383,-164.467C130.773,-253.129 102.389,-298.4 184.12,-329.669C265.852,-360.937 331.171,-351.374 330.898,-351.764C330.625,-352.154 353.378,-359.259 394.858,-341.504C436.337,-323.75 475.187,-299.416 466.636,-263.84C458.085,-228.264 387.595,-206.008 382.074,-173.917C376.553,-141.827 368.259,-97.923 404.838,-94.9C441.416,-91.877 502.987,-106.514 539.219,-92.858C575.451,-79.202 614.495,-52.502 626.971,1.667C639.447,55.836 611.048,186.407 536.591,260.746C462.135,335.085 170.403,278.665 98.182,189.392C26.12,99.976 -21.957,49.062 0,-25.852Z" style="fill:none;fill-rule:nonzero;stroke:rgb(29,29,27);stroke-width:0.53px;"/>
            </g>
        </g>
        <g transform="matrix(2,0,0,2,0,2678.74)">
            <g transform="matrix(1,0,0,1,-29.2635,174.725)">
                <path d="M0,-25.434C15.94,-80.206 108.477,-74.645 118.681,-162.118C128.884,-249.591 100.856,-294.273 181.483,-325.119C262.11,-355.965 326.534,-346.534 326.251,-346.939C325.968,-347.344 348.403,-354.374 389.336,-336.873C430.269,-319.373 468.633,-295.359 460.209,-260.276C451.785,-225.194 382.262,-203.257 376.801,-171.612C371.339,-139.967 363.124,-96.667 399.196,-93.701C435.268,-90.735 495.997,-105.198 531.749,-91.755C567.501,-78.311 606.068,-52.022 618.43,1.402C630.791,54.826 602.893,183.74 529.451,257.136C456.008,330.531 168.226,274.91 96.95,186.872C25.839,98.685 -21.631,48.43 0,-25.434Z" style="fill:none;fill-rule:nonzero;stroke:rgb(29,29,27);stroke-width:0.53px;"/>
            </g>
        </g>
        <g transform="matrix(2,0,0,2,0,2678.74)">
            <g transform="matrix(1,0,0,1,-24.1729,173.63)">
                <path d="M0,-25.017C15.692,-79.001 106.961,-73.488 116.978,-159.771C126.996,-246.055 99.324,-290.147 178.846,-320.571C258.368,-350.994 321.897,-341.696 321.604,-342.115C321.311,-342.534 343.428,-349.49 383.815,-332.243C424.201,-314.997 462.079,-291.302 453.782,-256.714C445.484,-222.125 376.93,-200.507 371.527,-169.307C366.124,-138.108 357.99,-95.412 393.554,-92.504C429.119,-89.595 489.007,-103.883 524.28,-90.652C559.552,-77.421 597.641,-51.544 609.888,1.136C622.136,53.815 594.739,181.072 522.31,253.524C449.882,325.977 166.049,271.154 95.718,184.35C25.557,97.392 -21.304,47.797 0,-25.017Z" style="fill:none;fill-rule:nonzero;stroke:rgb(29,29,27);stroke-width:0.52px;"/>
            </g>
        </g>
        <g transform="matrix(2,0,0,2,0,2678.74)">
            <g transform="matrix(1,0,0,1,-19.0823,172.534)">
                <path d="M0,-24.599C15.443,-77.795 105.445,-72.329 115.276,-157.423C125.107,-242.517 97.791,-286.02 176.209,-316.021C254.627,-346.022 317.261,-336.856 316.957,-337.29C316.654,-337.723 338.453,-344.605 378.293,-327.612C418.133,-310.619 455.524,-287.244 447.354,-253.15C439.184,-219.056 371.598,-197.756 366.254,-167.002C360.909,-136.248 352.855,-94.157 387.913,-91.305C422.971,-88.454 482.017,-102.568 516.81,-89.549C551.602,-76.531 589.213,-51.064 601.347,0.871C613.48,52.806 586.585,178.405 515.17,249.914C443.755,321.423 163.872,267.398 94.486,181.829C25.275,96.101 -20.978,47.166 0,-24.599Z" style="fill:none;fill-rule:nonzero;stroke:rgb(29,29,27);stroke-width:0.51px;"/>
            </g>
        </g>
        <g transform="matrix(2,0,0,2,0,2678.74)">
            <g transform="matrix(1,0,0,1,-13.9917,171.438)">
                <path d="M0,-24.181C15.195,-76.589 103.929,-71.171 113.573,-155.075C123.218,-238.979 96.258,-281.893 173.572,-311.472C250.885,-341.05 312.624,-332.017 312.311,-332.465C311.997,-332.913 333.478,-339.72 372.772,-322.981C412.065,-306.242 448.97,-283.186 440.927,-249.586C432.883,-215.986 366.266,-195.005 360.98,-164.697C355.694,-134.388 347.72,-92.901 382.271,-90.107C416.822,-87.313 475.027,-101.252 509.34,-88.446C543.653,-75.64 580.786,-50.585 592.805,0.606C604.825,51.796 578.431,175.739 508.03,246.304C437.628,316.869 161.696,263.643 93.254,179.309C24.993,94.81 -20.651,46.534 0,-24.181Z" style="fill:none;fill-rule:nonzero;stroke:rgb(29,29,27);stroke-width:0.51px;"/>
            </g>
        </g>
        <g transform="matrix(2,0,0,2,0,2678.74)">
            <g transform="matrix(1,0,0,1,-8.901,170.342)">
                <path d="M0,-23.763C14.946,-75.383 102.413,-70.012 111.871,-152.727C121.329,-235.441 94.726,-277.766 170.935,-306.922C247.144,-336.078 307.988,-327.178 307.664,-327.64C307.34,-328.102 328.503,-334.835 367.25,-318.35C405.997,-301.865 442.415,-279.128 434.499,-246.022C426.583,-212.917 360.934,-192.254 355.707,-162.391C350.48,-132.528 342.585,-91.645 376.629,-88.908C410.674,-86.172 468.037,-99.936 501.87,-87.343C535.703,-74.75 572.359,-50.105 584.264,0.341C596.169,50.786 570.276,173.072 500.889,242.693C431.502,312.315 159.519,259.888 92.021,176.788C24.712,93.519 -20.324,45.902 0,-23.763Z" style="fill:none;fill-rule:nonzero;stroke:rgb(29,29,27);stroke-width:0.5px;"/>
            </g>
        </g>
        <g transform="matrix(2,0,0,2,0,2678.74)">
            <g transform="matrix(1,0,0,1,-3.8105,169.247)">
                <path d="M0,-23.345C14.698,-74.177 100.897,-68.854 110.168,-150.378C119.44,-231.903 93.193,-273.64 168.298,-302.373C243.402,-331.106 303.351,-322.338 303.017,-322.815C302.684,-323.292 323.528,-329.95 361.728,-313.719C399.929,-297.488 435.861,-275.071 428.072,-242.459C420.282,-209.847 355.602,-189.503 350.433,-160.086C345.265,-130.668 337.45,-90.389 370.988,-87.71C404.525,-85.031 461.046,-98.621 494.4,-86.24C527.754,-73.859 563.931,-49.626 575.723,0.076C587.514,49.777 562.122,170.405 493.749,239.083C425.375,307.761 157.342,256.133 90.789,174.268C24.43,92.228 -19.998,45.271 0,-23.345Z" style="fill:none;fill-rule:nonzero;stroke:rgb(29,29,27);stroke-width:0.49px;"/>
            </g>
        </g>
        <g transform="matrix(2,0,0,2,0,2678.74)">
            <g transform="matrix(1,0,0,1,1.2801,168.151)">
                <path d="M0,-22.927C14.449,-72.971 99.381,-67.695 108.466,-148.03C117.551,-228.365 91.661,-269.513 165.661,-297.823C239.661,-326.134 298.714,-317.499 298.37,-317.99C298.027,-318.481 318.553,-325.065 356.207,-309.088C393.861,-293.111 429.307,-271.013 421.644,-238.895C413.982,-206.777 350.269,-186.753 345.16,-157.781C340.05,-128.808 332.315,-89.133 365.346,-86.511C398.377,-83.89 454.056,-97.305 486.93,-85.137C519.804,-72.969 555.504,-49.146 567.181,-0.19C578.858,48.767 553.968,167.739 486.608,235.473C419.249,303.207 155.166,252.377 89.557,171.747C24.148,90.936 -19.671,44.639 0,-22.927Z" style="fill:none;fill-rule:nonzero;stroke:rgb(29,29,27);stroke-width:0.49px;"/>
            </g>
        </g>
        <g transform="matrix(2,0,0,2,0,2678.74)">
            <g transform="matrix(1,0,0,1,6.3708,167.055)">
                <path d="M0,-22.509C14.2,-71.765 97.865,-66.537 106.763,-145.682C115.662,-224.827 90.128,-265.386 163.023,-293.274C235.919,-321.162 294.078,-312.659 293.724,-313.165C293.37,-313.67 313.578,-320.18 350.685,-304.457C387.793,-288.733 422.752,-266.955 415.217,-235.331C407.681,-203.708 344.937,-184.002 339.886,-155.475C334.835,-126.949 327.18,-87.877 359.704,-85.313C392.228,-82.748 447.066,-95.989 479.461,-84.034C511.855,-72.078 547.077,-48.666 558.64,-0.455C570.202,47.757 545.813,165.072 479.468,231.863C413.122,298.653 152.989,248.622 88.325,169.226C23.867,89.645 -19.345,44.008 0,-22.509Z" style="fill:none;fill-rule:nonzero;stroke:rgb(29,29,27);stroke-width:0.48px;"/>
            </g>
        </g>
        <g transform="matrix(2,0,0,2,0,2678.74)">
            <g transform="matrix(1,0,0,1,11.4613,165.959)">
                <path d="M0,-22.091C13.952,-70.558 96.349,-65.378 105.061,-143.334C113.773,-221.289 88.595,-261.259 160.386,-288.724C232.178,-316.19 289.441,-307.82 289.077,-308.34C288.713,-308.86 308.603,-315.295 345.164,-299.826C381.725,-284.356 416.198,-262.897 408.789,-231.768C401.381,-200.638 339.605,-181.251 334.613,-153.17C329.621,-125.088 322.046,-86.621 354.063,-84.114C386.08,-81.607 440.076,-94.674 471.991,-82.931C503.905,-71.188 538.65,-48.187 550.098,-0.72C561.547,46.747 537.659,162.405 472.327,228.252C406.995,294.099 150.812,244.867 87.093,166.706C23.585,88.354 -19.018,43.376 0,-22.091Z" style="fill:none;fill-rule:nonzero;stroke:rgb(29,29,27);stroke-width:0.47px;"/>
            </g>
        </g>
        <g transform="matrix(2,0,0,2,0,2678.74)">
            <g transform="matrix(1,0,0,1,16.552,164.863)">
                <path d="M0,-21.673C13.703,-69.352 94.833,-64.22 103.359,-140.986C111.884,-217.752 87.063,-257.132 157.749,-284.175C228.436,-311.218 284.804,-302.98 284.43,-303.515C284.056,-304.049 303.628,-310.41 339.642,-295.195C375.657,-279.979 409.643,-258.839 402.362,-228.204C395.08,-197.568 334.273,-178.5 329.339,-150.864C324.406,-123.229 316.911,-85.365 348.421,-82.916C379.932,-80.466 433.086,-93.358 464.521,-81.828C495.956,-70.297 530.222,-47.707 541.557,-0.985C552.891,45.738 529.505,159.738 465.187,224.642C400.869,289.545 148.636,241.111 85.861,164.185C23.303,87.063 -18.692,42.744 0,-21.673Z" style="fill:none;fill-rule:nonzero;stroke:rgb(29,29,27);stroke-width:0.46px;"/>
            </g>
        </g>
        <g transform="matrix(2,0,0,2,0,2678.74)">
            <g transform="matrix(1,0,0,1,21.6426,163.769)">
                <path d="M0,-21.256C13.454,-68.147 93.317,-63.062 101.656,-138.638C109.995,-214.215 85.53,-253.006 155.112,-279.626C224.694,-306.247 280.168,-298.142 279.784,-298.691C279.399,-299.24 298.653,-305.526 334.121,-290.565C369.589,-275.603 403.089,-254.783 395.934,-224.641C388.78,-194.5 328.941,-175.75 324.066,-148.56C319.191,-121.37 311.776,-84.11 342.779,-81.718C373.783,-79.326 426.095,-92.043 457.051,-80.726C488.006,-69.408 521.795,-47.229 533.016,-1.251C544.236,44.727 521.35,157.071 458.046,221.031C394.742,284.991 146.459,237.355 84.628,161.664C23.022,85.77 -18.365,42.112 0,-21.256Z" style="fill:none;fill-rule:nonzero;stroke:rgb(29,29,27);stroke-width:0.46px;"/>
            </g>
        </g>
        <g transform="matrix(2,0,0,2,0,2678.74)">
            <g transform="matrix(1,0,0,1,26.7332,162.673)">
                <path d="M0,-20.838C13.206,-66.941 91.801,-61.903 99.954,-136.29C108.106,-210.677 83.997,-248.879 152.475,-275.077C220.953,-301.275 275.531,-293.302 275.137,-293.866C274.742,-294.429 293.678,-300.641 328.599,-285.933C363.52,-271.225 396.534,-250.725 389.507,-221.078C382.479,-191.43 323.609,-172.999 318.792,-146.255C313.976,-119.51 306.641,-82.854 337.138,-80.519C367.635,-78.185 419.105,-90.728 449.581,-79.622C480.057,-68.517 513.368,-46.749 524.474,-1.516C535.58,43.717 513.196,154.404 450.906,217.42C388.616,280.437 144.282,233.6 83.396,159.143C22.74,84.479 -18.039,41.48 0,-20.838Z" style="fill:none;fill-rule:nonzero;stroke:rgb(29,29,27);stroke-width:0.45px;"/>
            </g>
        </g>
        <g transform="matrix(2,0,0,2,0,2678.74)">
            <g transform="matrix(1,0,0,1,31.8238,161.577)">
                <path d="M0,-20.42C12.957,-65.735 90.285,-60.745 98.251,-133.942C106.217,-207.139 82.465,-244.752 149.838,-270.527C217.211,-296.303 270.895,-288.463 270.49,-289.041C270.086,-289.619 288.703,-295.756 323.078,-281.302C357.452,-266.848 389.98,-246.667 383.079,-217.514C376.178,-188.36 318.276,-170.249 313.519,-143.949C308.762,-117.65 301.506,-81.598 331.496,-79.321C361.486,-77.044 412.115,-89.412 442.111,-78.519C472.107,-67.627 504.94,-46.269 515.933,-1.781C526.925,42.708 505.042,151.737 443.765,213.81C382.489,275.883 142.105,229.845 82.164,156.622C22.458,83.188 -17.712,40.848 0,-20.42Z" style="fill:none;fill-rule:nonzero;stroke:rgb(29,29,27);stroke-width:0.44px;"/>
            </g>
        </g>
        <g transform="matrix(2,0,0,2,0,2678.74)">
            <g transform="matrix(1,0,0,1,36.9144,160.482)">
                <path d="M0,-20.003C12.709,-64.53 88.769,-59.587 96.549,-131.595C104.329,-203.602 80.932,-240.626 147.201,-265.979C213.47,-291.331 266.258,-283.624 265.843,-284.217C265.429,-284.809 283.728,-290.873 317.556,-276.672C351.384,-262.472 383.426,-242.61 376.652,-213.951C369.878,-185.292 312.944,-167.499 308.246,-141.645C303.547,-115.791 296.371,-80.343 325.855,-78.123C355.338,-75.903 405.125,-88.097 434.641,-77.417C464.158,-66.737 496.513,-45.791 507.391,-2.047C518.269,41.697 496.887,149.07 436.625,210.199C376.362,271.328 139.929,226.088 80.932,154.101C22.177,81.896 -17.386,40.216 0,-20.003Z" style="fill:none;fill-rule:nonzero;stroke:rgb(29,29,27);stroke-width:0.44px;"/>
            </g>
        </g>
        <g transform="matrix(2,0,0,2,0,2678.74)">
            <g transform="matrix(1,0,0,1,42.005,159.386)">
                <path d="M0,-19.585C12.46,-63.324 87.253,-58.429 94.846,-129.246C102.44,-200.064 79.4,-236.499 144.564,-261.429C209.728,-286.359 261.621,-278.785 261.197,-279.392C260.772,-279.999 278.753,-285.988 312.035,-272.041C345.316,-258.095 376.871,-238.552 370.224,-210.387C363.577,-182.222 307.612,-164.748 302.972,-139.339C298.332,-113.931 291.237,-79.087 320.213,-76.925C349.189,-74.762 398.135,-86.782 427.172,-76.314C456.208,-65.847 488.086,-45.311 498.85,-2.312C509.614,40.687 488.733,146.403 429.484,206.588C370.236,266.774 137.752,222.333 79.7,151.58C21.895,80.605 -17.059,39.584 0,-19.585Z" style="fill:none;fill-rule:nonzero;stroke:rgb(29,29,27);stroke-width:0.43px;"/>
            </g>
        </g>
        <g transform="matrix(2,0,0,2,0,2678.74)">
            <g transform="matrix(1,0,0,1,47.0957,158.29)">
                <path d="M0,-19.167C12.212,-62.118 85.737,-57.27 93.144,-126.898C100.551,-196.526 77.867,-232.372 141.927,-256.88C205.986,-281.387 256.985,-273.945 256.55,-274.567C256.115,-275.188 273.778,-281.103 306.513,-267.41C339.248,-253.718 370.317,-234.495 363.797,-206.824C357.277,-179.153 302.28,-161.997 297.699,-137.034C293.117,-112.071 286.102,-77.831 314.571,-75.726C343.041,-73.621 391.145,-85.466 419.702,-75.211C448.259,-64.956 479.659,-44.832 490.308,-2.577C500.958,39.678 480.579,143.736 422.344,202.978C364.109,262.22 135.575,218.578 78.468,149.06C21.613,79.313 -16.732,38.952 0,-19.167Z" style="fill:none;fill-rule:nonzero;stroke:rgb(29,29,27);stroke-width:0.42px;"/>
            </g>
        </g>
        <g transform="matrix(2,0,0,2,0,2678.74)">
            <g transform="matrix(1,0,0,1,52.1862,157.195)">
                <path d="M0,-18.749C11.963,-60.912 84.221,-56.112 91.442,-124.55C98.662,-192.989 76.334,-228.245 139.29,-252.33C202.245,-276.415 252.348,-269.106 251.903,-269.742C251.458,-270.377 268.803,-276.218 300.992,-262.779C333.18,-249.34 363.762,-230.437 357.369,-203.26C350.976,-176.083 296.948,-159.246 292.425,-134.728C287.903,-110.211 280.967,-76.575 308.93,-74.528C336.892,-72.48 384.154,-84.15 412.232,-74.108C440.309,-64.066 471.231,-44.352 481.767,-2.842C492.303,38.668 472.425,141.069 415.204,199.368C357.983,257.666 133.399,214.823 77.236,146.539C21.332,78.022 -16.406,38.321 0,-18.749Z" style="fill:none;fill-rule:nonzero;stroke:rgb(29,29,27);stroke-width:0.42px;"/>
            </g>
        </g>
        <g transform="matrix(2,0,0,2,0,2678.74)">
            <g transform="matrix(1,0,0,1,57.2769,156.099)">
                <path d="M0,-18.331C11.714,-59.706 82.705,-54.953 89.739,-122.202C96.773,-189.451 74.802,-224.118 136.652,-247.781C198.503,-271.443 247.711,-264.266 247.256,-264.917C246.801,-265.567 263.828,-271.333 295.47,-258.148C327.112,-244.963 357.208,-226.379 350.942,-199.696C344.676,-173.013 291.615,-156.495 287.152,-132.423C282.688,-108.351 275.832,-75.32 303.288,-73.329C330.744,-71.339 377.164,-82.834 404.762,-73.005C432.36,-63.175 462.804,-43.873 473.226,-3.107C483.647,37.658 464.27,138.403 408.063,195.758C351.856,253.112 131.084,211.18 76.003,144.018C20.912,76.844 -16.079,37.689 0,-18.331Z" style="fill:none;fill-rule:nonzero;stroke:rgb(29,29,27);stroke-width:0.41px;"/>
            </g>
        </g>
        <g transform="matrix(2,0,0,2,0,2678.74)">
            <g transform="matrix(1,0,0,1,62.3675,155.003)">
                <path d="M0,-17.913C11.466,-58.499 81.189,-53.794 88.037,-119.854C94.884,-185.913 73.269,-219.991 134.015,-243.231C194.762,-266.471 243.075,-259.427 242.61,-260.091C242.144,-260.756 258.853,-266.448 289.948,-253.517C321.044,-240.586 350.653,-222.321 344.514,-196.133C338.375,-169.944 286.283,-153.744 281.878,-130.118C277.473,-106.491 270.697,-74.064 297.646,-72.131C324.595,-70.198 370.174,-81.519 397.292,-71.902C424.41,-62.285 454.377,-43.393 464.684,-3.372C474.992,36.649 456.116,135.736 400.923,192.147C345.729,248.558 128.905,207.428 74.771,141.498C20.627,75.555 -15.753,37.058 0,-17.913Z" style="fill:none;fill-rule:nonzero;stroke:rgb(29,29,27);stroke-width:0.4px;"/>
            </g>
        </g>
        <g transform="matrix(2,0,0,2,0,2678.74)">
            <g transform="matrix(1,0,0,1,67.458,153.844)">
                <path d="M0,-17.432C11.217,-57.23 79.673,-52.573 86.334,-117.442C92.995,-182.312 71.736,-215.801 131.378,-238.619C191.02,-261.436 238.438,-254.524 237.963,-255.203C237.488,-255.883 253.878,-261.5 284.427,-248.823C314.976,-236.146 344.099,-218.2 338.087,-192.506C332.075,-166.811 280.951,-150.931 276.605,-127.749C272.259,-104.568 265.562,-72.745 292.005,-70.869C318.447,-68.994 363.184,-80.14 389.822,-70.736C416.461,-61.331 445.949,-42.85 456.143,-3.574C466.336,35.702 447.962,133.132 393.782,188.6C339.603,244.068 126.725,203.738 73.539,139.04C20.343,74.329 -15.426,36.489 0,-17.432Z" style="fill:none;fill-rule:nonzero;stroke:rgb(29,29,27);stroke-width:0.39px;"/>
            </g>
        </g>
        <g transform="matrix(2,0,0,2,0,2678.74)">
            <g transform="matrix(1,0,0,1,72.5487,152.661)">
                <path d="M0,-16.927C11.048,-55.915 78.157,-51.327 84.632,-115.007C91.106,-178.687 70.204,-211.587 128.741,-233.982C187.279,-256.377 233.802,-249.598 233.316,-250.291C232.831,-250.985 248.903,-256.528 278.905,-244.105C308.908,-231.681 337.544,-214.056 331.659,-188.855C325.774,-163.655 275.619,-148.093 271.331,-125.357C267.044,-102.621 260.427,-71.402 286.363,-69.584C312.298,-67.765 356.194,-78.737 382.353,-69.545C408.511,-60.354 437.522,-42.284 447.601,-3.752C457.681,34.779 439.807,130.553 386.642,185.077C333.476,239.601 124.545,200.072 72.307,136.607C20.058,73.128 -14.991,35.975 0,-16.927Z" style="fill:none;fill-rule:nonzero;stroke:rgb(29,29,27);stroke-width:0.39px;"/>
            </g>
        </g>
        <g transform="matrix(2,0,0,2,0,2678.74)">
            <g transform="matrix(1,0,0,1,77.6393,151.478)">
                <path d="M0,-16.422C10.802,-54.621 76.641,-50.082 82.929,-112.572C89.217,-175.062 68.671,-207.373 126.104,-229.346C183.537,-251.318 229.165,-244.671 228.669,-245.379C228.174,-246.087 243.928,-251.556 273.384,-239.387C302.84,-227.217 330.99,-209.911 325.232,-185.204C319.474,-160.498 270.287,-145.255 266.058,-122.964C261.829,-100.674 255.293,-70.059 280.721,-68.298C306.15,-66.537 349.204,-77.335 374.883,-68.355C400.562,-59.376 429.095,-41.717 439.06,-3.93C449.025,33.856 431.653,127.973 379.501,181.553C327.35,235.134 122.365,196.407 71.075,134.173C19.773,71.926 -14.662,35.431 0,-16.422Z" style="fill:none;fill-rule:nonzero;stroke:rgb(29,29,27);stroke-width:0.38px;"/>
            </g>
        </g>
        <g transform="matrix(2,0,0,2,0,2678.74)">
            <g transform="matrix(1,0,0,1,82.73,150.296)">
                <path d="M0,-15.917C10.555,-53.328 75.125,-48.836 81.227,-110.137C87.328,-171.437 67.138,-203.159 123.467,-224.709C179.795,-246.259 224.528,-239.745 224.023,-240.467C223.517,-241.19 238.953,-246.584 267.862,-234.668C296.772,-222.753 324.436,-205.766 318.804,-181.554C313.173,-157.341 264.955,-142.417 260.784,-120.572C256.614,-98.727 250.158,-68.716 275.08,-67.013C300.001,-65.309 342.213,-75.932 367.413,-67.165C392.612,-58.399 420.667,-41.151 430.518,-4.108C440.37,32.934 423.499,125.393 372.361,178.03C321.223,230.667 120.186,192.741 69.843,131.739C19.488,70.725 -14.333,34.887 0,-15.917Z" style="fill:none;fill-rule:nonzero;stroke:rgb(29,29,27);stroke-width:0.37px;"/>
            </g>
        </g>
        <g transform="matrix(2,0,0,2,0,2678.74)">
            <g transform="matrix(1,0,0,1,87.8205,149.113)">
                <path d="M0,-15.412C10.308,-52.034 73.609,-47.591 79.524,-107.702C85.439,-167.812 65.606,-198.945 120.83,-220.073C176.054,-241.2 219.892,-234.818 219.376,-235.555C218.86,-236.292 233.978,-241.612 262.341,-229.95C290.703,-218.289 317.881,-201.621 312.377,-177.903C306.872,-154.184 259.622,-139.579 255.511,-118.18C251.399,-96.78 245.023,-67.373 269.438,-65.727C293.853,-64.081 335.223,-74.529 359.943,-65.975C384.663,-57.421 412.24,-40.584 421.977,-4.286C431.714,32.011 415.344,122.814 365.22,174.507C315.096,226.2 118.006,189.075 68.61,129.306C19.204,69.523 -14.004,34.343 0,-15.412Z" style="fill:none;fill-rule:nonzero;stroke:rgb(29,29,27);stroke-width:0.37px;"/>
            </g>
        </g>
        <g transform="matrix(2,0,0,2,0,2678.74)">
            <g transform="matrix(1,0,0,1,92.9111,147.93)">
                <path d="M0,-14.907C10.061,-50.741 72.093,-46.345 77.822,-105.266C83.55,-164.188 64.073,-194.731 118.193,-215.436C172.312,-236.141 215.255,-229.892 214.729,-230.643C214.203,-231.395 229.003,-236.64 256.819,-225.232C284.635,-213.824 311.327,-197.477 305.949,-174.252C300.572,-151.028 254.29,-136.741 250.238,-115.787C246.185,-94.833 239.888,-66.03 263.796,-64.442C287.705,-62.853 328.233,-73.127 352.473,-64.785C376.713,-56.444 403.813,-40.017 413.436,-4.465C423.059,31.088 407.19,120.234 358.08,170.984C308.97,221.733 115.826,185.41 67.378,126.872C18.919,68.321 -13.675,33.799 0,-14.907Z" style="fill:none;fill-rule:nonzero;stroke:rgb(29,29,27);stroke-width:0.36px;"/>
            </g>
        </g>
        <g transform="matrix(2,0,0,2,0,2678.74)">
            <g transform="matrix(1,0,0,1,98.0018,146.747)">
                <path d="M0,-14.402C9.814,-49.447 70.577,-45.1 76.119,-102.831C81.661,-160.563 62.541,-190.517 115.556,-210.8C168.571,-231.082 210.618,-224.966 210.082,-225.731C209.546,-226.497 224.028,-231.668 251.298,-220.514C278.567,-209.36 304.772,-193.332 299.522,-170.602C294.271,-147.871 248.958,-133.903 244.964,-113.395C240.97,-92.886 234.753,-64.687 258.155,-63.156C281.556,-61.625 321.243,-71.724 345.003,-63.595C368.764,-55.466 395.386,-39.451 404.894,-4.643C414.403,30.166 399.036,117.654 350.939,167.46C302.843,217.266 113.647,181.744 66.146,124.439C18.635,67.12 -13.346,33.255 0,-14.402Z" style="fill:none;fill-rule:nonzero;stroke:rgb(29,29,27);stroke-width:0.35px;"/>
            </g>
        </g>
        <g transform="matrix(2,0,0,2,0,2678.74)">
            <g transform="matrix(1,0,0,1,103.092,145.564)">
                <path d="M0,-13.897C9.568,-48.154 69.061,-43.854 74.417,-100.396C79.773,-156.938 61.008,-186.303 112.919,-206.163C164.829,-226.023 205.982,-220.039 205.436,-220.819C204.89,-221.6 219.053,-226.696 245.776,-215.796C272.499,-204.896 298.218,-189.187 293.094,-166.951C287.971,-144.715 243.626,-131.066 239.691,-111.002C235.755,-90.939 229.618,-63.344 252.513,-61.87C275.408,-60.397 314.253,-70.321 337.534,-62.405C360.814,-54.489 386.958,-38.884 396.353,-4.821C405.747,29.243 390.882,115.074 343.799,163.937C296.716,212.799 111.467,178.079 64.914,122.005C18.35,65.918 -13.017,32.711 0,-13.897Z" style="fill:none;fill-rule:nonzero;stroke:rgb(29,29,27);stroke-width:0.35px;"/>
            </g>
        </g>
        <g transform="matrix(2,0,0,2,0,2678.74)">
            <g transform="matrix(1,0,0,1,108.183,144.382)">
                <path d="M0,-13.393C9.321,-46.861 67.545,-42.609 72.714,-97.962C77.884,-153.314 59.475,-182.09 110.281,-201.528C161.087,-220.965 201.345,-215.114 200.789,-215.908C200.233,-216.703 214.078,-221.725 240.255,-211.079C266.431,-200.433 291.664,-185.043 286.667,-163.301C281.67,-141.559 238.294,-128.229 234.417,-108.611C230.54,-88.993 224.484,-62.002 246.871,-60.586C269.259,-59.169 307.262,-68.92 330.064,-61.216C352.865,-53.512 378.531,-38.319 387.811,-5C397.092,28.319 382.727,112.494 336.658,160.413C290.59,208.332 109.287,174.412 63.682,119.571C18.065,64.716 -12.688,32.166 0,-13.393Z" style="fill:none;fill-rule:nonzero;stroke:rgb(29,29,27);stroke-width:0.34px;"/>
            </g>
        </g>
        <g transform="matrix(2,0,0,2,0,2678.74)">
            <g transform="matrix(1,0,0,1,113.274,143.2)">
                <path d="M0,-12.888C9.074,-45.567 66.029,-41.364 71.012,-95.526C75.995,-149.689 57.943,-177.876 107.644,-196.891C157.346,-215.906 196.709,-210.187 196.142,-210.996C195.576,-211.805 209.103,-216.753 234.733,-206.361C260.363,-195.969 285.109,-180.898 280.24,-159.65C275.37,-138.402 232.962,-125.391 229.144,-106.219C225.326,-87.046 219.349,-60.659 241.23,-59.3C263.111,-57.941 300.272,-67.517 322.594,-60.026C344.915,-52.534 370.104,-37.752 379.27,-5.178C388.436,27.397 374.573,109.914 329.518,156.889C284.463,203.865 107.108,170.746 62.45,117.137C17.781,63.514 -12.359,31.622 0,-12.888Z" style="fill:none;fill-rule:nonzero;stroke:rgb(29,29,27);stroke-width:0.33px;"/>
            </g>
        </g>
        <g transform="matrix(2,0,0,2,0,2678.74)">
            <g transform="matrix(1,0,0,1,118.364,142.016)">
                <path d="M0,-12.382C8.827,-44.273 64.513,-40.117 69.31,-93.09C74.106,-146.063 56.41,-173.661 105.007,-192.253C153.604,-210.846 192.072,-205.26 191.496,-206.083C190.919,-206.907 204.128,-211.781 229.212,-201.642C254.295,-191.503 278.555,-176.752 273.812,-155.999C269.069,-135.245 227.63,-122.552 223.87,-103.825C220.111,-85.098 214.214,-59.315 235.588,-58.014C256.962,-56.712 293.282,-66.113 315.124,-58.835C336.966,-51.556 361.676,-37.185 370.729,-5.355C379.781,26.475 366.419,107.335 322.378,153.367C278.337,199.399 104.928,167.082 61.218,114.704C17.496,62.314 -12.03,31.079 0,-12.382Z" style="fill:none;fill-rule:nonzero;stroke:rgb(29,29,27);stroke-width:0.33px;"/>
            </g>
        </g>
        <g transform="matrix(2,0,0,2,0,2678.74)">
            <g transform="matrix(1,0,0,1,123.455,140.833)">
                <path d="M0,-11.877C8.581,-42.979 62.997,-38.872 67.607,-90.655C72.217,-142.438 54.878,-169.447 102.37,-187.617C149.863,-205.787 187.435,-200.333 186.849,-201.171C186.262,-202.009 199.153,-206.809 223.69,-196.924C248.227,-187.039 272,-172.608 267.384,-152.348C262.769,-132.088 222.297,-119.714 218.597,-101.433C214.896,-83.151 209.079,-57.973 229.946,-56.728C250.814,-55.484 286.292,-64.711 307.654,-57.645C329.016,-50.579 353.249,-36.618 362.187,-5.533C371.125,25.552 358.264,104.755 315.237,149.844C272.21,194.932 102.749,163.416 59.985,112.271C17.211,61.112 -11.701,30.535 0,-11.877Z" style="fill:none;fill-rule:nonzero;stroke:rgb(29,29,27);stroke-width:0.32px;"/>
            </g>
        </g>
        <g transform="matrix(2,0,0,2,0,2678.74)">
            <g transform="matrix(1,0,0,1,128.545,139.65)">
                <path d="M0,-11.372C8.334,-41.686 61.481,-37.626 65.905,-88.22C70.328,-138.814 53.345,-165.233 99.733,-182.98C146.121,-200.727 182.799,-195.407 182.202,-196.259C181.605,-197.112 194.178,-201.837 218.168,-192.206C242.159,-182.575 265.446,-168.463 260.957,-148.697C256.468,-128.931 216.965,-116.876 213.323,-99.04C209.681,-81.204 203.944,-56.63 224.305,-55.443C244.665,-54.256 279.302,-63.308 300.184,-56.454C321.067,-49.601 344.822,-36.051 353.646,-5.711C362.47,24.629 350.11,102.176 308.097,146.32C266.083,190.465 100.569,159.751 58.753,109.837C16.927,59.911 -11.371,29.991 0,-11.372Z" style="fill:none;fill-rule:nonzero;stroke:rgb(29,29,27);stroke-width:0.31px;"/>
            </g>
        </g>
        <g transform="matrix(2,0,0,2,0,2678.74)">
            <g transform="matrix(1,0,0,1,133.636,138.467)">
                <path d="M0,-10.867C8.087,-40.392 59.965,-36.381 64.202,-85.785C68.439,-135.189 51.812,-161.019 97.096,-178.344C142.38,-195.668 178.162,-190.48 177.555,-191.347C176.949,-192.214 189.203,-196.865 212.647,-187.488C236.091,-178.111 258.891,-164.318 254.53,-145.047C250.168,-125.775 211.633,-114.039 208.05,-96.648C204.467,-79.258 198.809,-55.287 218.663,-54.157C238.517,-53.028 272.312,-61.905 292.715,-55.264C313.117,-48.623 336.395,-35.485 345.104,-5.889C353.814,23.707 341.956,99.596 300.956,142.797C259.957,185.998 98.389,156.085 57.521,107.404C16.642,58.709 -11.042,29.447 0,-10.867Z" style="fill:none;fill-rule:nonzero;stroke:rgb(29,29,27);stroke-width:0.31px;"/>
            </g>
        </g>
        <g transform="matrix(2,0,0,2,0,2678.74)">
            <g transform="matrix(1,0,0,1,138.727,137.285)">
                <path d="M0,-10.362C7.841,-39.099 58.449,-35.135 62.5,-83.35C66.55,-131.564 50.28,-156.806 94.459,-173.707C138.638,-190.609 173.525,-185.554 172.909,-186.435C172.292,-187.317 184.228,-191.893 207.125,-182.77C230.023,-173.646 252.337,-160.173 248.102,-141.396C243.867,-122.618 206.301,-111.201 202.776,-94.256C199.252,-77.311 193.675,-53.944 213.022,-52.872C232.368,-51.8 265.321,-60.503 285.245,-54.074C305.168,-47.646 327.967,-34.918 336.563,-6.067C345.159,22.784 333.801,97.016 293.816,139.274C253.83,181.531 96.21,152.42 56.289,104.97C16.358,57.508 -10.713,28.903 0,-10.362Z" style="fill:none;fill-rule:nonzero;stroke:rgb(29,29,27);stroke-width:0.3px;"/>
            </g>
        </g>
        <g transform="matrix(2,0,0,2,0,2678.74)">
            <g transform="matrix(1,0,0,1,143.817,136.102)">
                <path d="M0,-9.857C7.594,-37.805 56.933,-33.89 60.797,-80.914C64.661,-127.939 48.747,-152.592 91.822,-169.071C134.896,-185.55 168.889,-180.627 168.262,-181.523C167.635,-182.419 179.253,-186.921 201.604,-178.052C223.955,-169.182 245.783,-156.029 241.675,-137.745C237.567,-119.462 200.969,-108.363 197.503,-91.863C194.037,-75.364 188.54,-52.601 207.38,-51.586C226.22,-50.572 258.331,-59.1 277.775,-52.884C297.218,-46.668 319.54,-34.352 328.022,-6.245C336.503,21.861 325.647,94.437 286.675,135.75C247.704,177.064 94.03,148.754 55.057,102.536C16.073,56.306 -10.384,28.359 0,-9.857Z" style="fill:none;fill-rule:nonzero;stroke:rgb(29,29,27);stroke-width:0.29px;"/>
            </g>
        </g>
        <g transform="matrix(2,0,0,2,0,2678.74)">
            <g transform="matrix(1,0,0,1,148.908,134.919)">
                <path d="M0,-9.352C7.347,-36.512 55.417,-32.644 59.095,-78.479C62.772,-124.314 47.214,-148.378 89.185,-164.434C131.155,-180.491 164.252,-175.701 163.615,-176.611C162.978,-177.521 174.278,-181.949 196.082,-173.334C217.887,-164.718 239.228,-151.884 235.247,-134.094C231.266,-116.305 195.636,-105.525 192.229,-89.471C188.822,-73.417 183.405,-51.258 201.738,-50.301C220.072,-49.343 251.341,-57.697 270.305,-51.694C289.269,-45.691 311.113,-33.785 319.48,-6.423C327.848,20.939 317.493,91.857 279.535,132.227C241.577,172.597 91.851,145.089 53.825,100.103C15.788,55.105 -10.054,27.815 0,-9.352Z" style="fill:none;fill-rule:nonzero;stroke:rgb(29,29,27);stroke-width:0.28px;"/>
            </g>
        </g>
        <g transform="matrix(2,0,0,2,0,2678.74)">
            <g transform="matrix(1,0,0,1,153.998,133.737)">
                <path d="M0,-8.848C7.101,-35.219 53.902,-31.4 57.392,-76.045C60.883,-120.69 45.682,-144.165 86.548,-159.799C127.413,-175.433 159.616,-170.775 158.968,-171.7C158.321,-172.625 169.303,-176.978 190.561,-168.616C211.819,-160.255 232.674,-147.74 228.82,-130.445C224.965,-113.149 190.304,-102.688 186.956,-87.079C183.608,-71.471 178.27,-49.916 196.097,-49.016C213.923,-48.116 244.351,-56.295 262.835,-50.505C281.319,-44.714 302.685,-33.219 310.939,-6.602C319.192,20.015 309.338,89.276 272.394,128.703C235.45,168.13 89.671,141.422 52.593,97.668C15.504,53.902 -9.725,27.27 0,-8.848Z" style="fill:none;fill-rule:nonzero;stroke:rgb(29,29,27);stroke-width:0.28px;"/>
            </g>
        </g>
        <g transform="matrix(2,0,0,2,0,2678.74)">
            <g transform="matrix(1,0,0,1,159.089,132.554)">
                <path d="M0,-8.343C6.854,-33.926 52.386,-30.154 55.69,-73.61C58.994,-117.065 44.149,-139.951 83.91,-155.162C123.672,-170.374 154.979,-165.849 154.322,-166.788C153.664,-167.727 164.328,-172.006 185.039,-163.898C205.75,-155.79 226.119,-143.595 222.392,-126.794C218.665,-109.993 184.972,-99.85 181.682,-84.687C178.393,-69.524 173.135,-48.573 190.455,-47.731C207.775,-46.888 237.361,-54.893 255.365,-49.315C273.37,-43.737 294.258,-32.653 302.397,-6.78C310.537,19.092 301.184,86.696 265.254,125.18C229.324,163.663 87.492,137.757 51.36,95.235C15.219,52.701 -9.396,26.726 0,-8.343Z" style="fill:none;fill-rule:nonzero;stroke:rgb(29,29,27);stroke-width:0.27px;"/>
            </g>
        </g>
        <g transform="matrix(2,0,0,2,0,2678.74)">
            <g transform="matrix(1,0,0,1,164.18,131.371)">
                <path d="M0,-7.838C6.607,-32.632 50.87,-28.908 53.988,-71.174C57.105,-113.44 42.617,-135.737 81.273,-150.526C119.93,-165.315 150.342,-160.922 149.675,-161.876C149.007,-162.83 159.353,-167.034 179.518,-159.18C199.682,-151.326 219.565,-139.45 215.965,-123.143C212.364,-106.836 179.64,-97.012 176.409,-82.295C173.178,-67.577 168,-47.23 184.813,-46.445C201.626,-45.66 230.37,-53.49 247.895,-48.125C265.42,-42.759 285.831,-32.086 293.856,-6.958C301.881,18.17 293.03,84.117 258.113,121.656C223.197,159.196 85.312,134.092 50.128,92.801C14.935,51.499 -9.066,26.182 0,-7.838Z" style="fill:none;fill-rule:nonzero;stroke:rgb(29,29,27);stroke-width:0.26px;"/>
            </g>
        </g>
        <g transform="matrix(2,0,0,2,0,2678.74)">
            <g transform="matrix(1,0,0,1,169.27,130.189)">
                <path d="M0,-7.333C6.361,-31.339 49.354,-27.663 52.285,-68.739C55.217,-109.816 41.084,-131.523 78.636,-145.889C116.188,-160.256 145.706,-155.996 145.028,-156.964C144.351,-157.932 154.378,-162.062 173.996,-154.462C193.614,-146.862 213.011,-135.306 209.537,-119.493C206.064,-103.679 174.308,-94.175 171.136,-79.902C167.963,-65.63 162.866,-45.887 179.172,-45.159C195.478,-44.432 223.38,-52.087 240.426,-46.935C257.471,-41.782 277.404,-31.52 285.315,-7.136C293.226,17.247 284.875,81.537 250.973,118.133C217.071,154.729 83.133,130.426 48.896,90.367C14.65,50.298 -8.737,25.638 0,-7.333Z" style="fill:none;fill-rule:nonzero;stroke:rgb(29,29,27);stroke-width:0.26px;"/>
            </g>
        </g>
        <g transform="matrix(2,0,0,2,0,2678.74)">
            <g transform="matrix(1,0,0,1,174.361,129.006)">
                <path d="M0,-6.828C6.115,-30.045 47.838,-26.417 50.583,-66.304C53.328,-106.191 39.551,-127.309 75.999,-141.253C112.447,-155.197 141.069,-151.069 140.381,-152.052C139.694,-153.034 149.403,-157.09 168.475,-149.744C187.546,-142.398 206.456,-131.161 203.11,-115.842C199.763,-100.523 168.976,-91.337 165.862,-77.51C162.749,-63.683 157.731,-44.544 173.53,-43.874C189.329,-43.204 216.39,-50.685 232.956,-45.745C249.521,-40.804 268.976,-30.953 276.773,-7.314C284.57,16.324 276.721,78.957 243.833,114.61C210.944,150.262 80.953,126.761 47.664,87.934C14.366,49.097 -8.407,25.094 0,-6.828Z" style="fill:none;fill-rule:nonzero;stroke:rgb(29,29,27);stroke-width:0.25px;"/>
            </g>
        </g>
        <g transform="matrix(2,0,0,2,0,2678.74)">
            <g transform="matrix(1,0,0,1,179.452,127.823)">
                <path d="M0,-6.323C5.868,-28.752 46.322,-25.172 48.88,-63.869C51.439,-102.566 38.019,-123.095 73.362,-136.616C108.705,-150.138 136.433,-146.143 135.735,-147.14C135.037,-148.137 144.428,-152.118 162.953,-145.026C181.478,-137.934 199.902,-127.016 196.682,-112.191C193.463,-97.366 163.644,-88.499 160.589,-75.117C157.534,-61.736 152.596,-43.201 167.888,-42.588C183.181,-41.975 209.4,-49.282 225.486,-44.554C241.572,-39.827 260.549,-30.387 268.232,-7.493C275.915,15.402 268.567,76.378 236.692,111.086C204.817,145.795 78.774,123.095 46.432,85.5C14.081,47.895 -8.077,24.55 0,-6.323Z" style="fill:none;fill-rule:nonzero;stroke:rgb(29,29,27);stroke-width:0.24px;"/>
            </g>
        </g>
        <g transform="matrix(2,0,0,2,0,2678.74)">
            <g transform="matrix(1,0,0,1,184.542,126.64)">
                <path d="M0,-5.818C5.622,-27.459 44.806,-23.926 47.178,-61.434C49.55,-98.941 36.486,-118.881 70.725,-131.98C104.964,-145.079 131.796,-141.216 131.088,-142.228C130.38,-143.239 139.453,-147.146 157.432,-140.308C175.41,-133.469 193.347,-122.871 190.255,-108.54C187.162,-94.209 158.311,-85.661 155.315,-72.725C152.319,-59.789 147.461,-41.858 162.247,-41.303C177.032,-40.747 202.41,-47.879 218.016,-43.364C233.622,-38.849 252.122,-29.82 259.69,-7.671C267.259,14.479 260.412,73.798 229.552,107.563C198.691,141.328 76.595,119.43 45.2,83.067C13.797,46.694 -7.747,24.006 0,-5.818Z" style="fill:none;fill-rule:nonzero;stroke:rgb(29,29,27);stroke-width:0.24px;"/>
            </g>
        </g>
        <g transform="matrix(2,0,0,2,0,2678.74)">
            <g transform="matrix(1,0,0,1,189.633,125.457)">
                <path d="M0,-5.313C5.375,-26.165 43.29,-22.681 45.475,-58.998C47.661,-95.316 34.953,-114.667 68.088,-127.343C101.222,-140.02 127.159,-136.29 126.441,-137.316C125.723,-138.342 134.478,-142.174 151.91,-135.59C169.342,-129.005 186.793,-118.726 183.827,-104.89C180.862,-91.053 152.979,-82.823 150.042,-70.333C147.104,-57.842 142.326,-40.515 156.605,-40.017C170.884,-39.519 195.42,-46.477 210.546,-42.174C225.673,-37.872 243.694,-29.253 251.149,-7.849C258.603,13.556 252.258,71.218 222.411,104.04C192.564,136.861 74.415,115.765 43.967,80.633C13.513,45.493 -7.418,23.461 0,-5.313Z" style="fill:none;fill-rule:nonzero;stroke:rgb(29,29,27);stroke-width:0.23px;"/>
            </g>
        </g>
        <g transform="matrix(2,0,0,2,0,2678.74)">
            <g transform="matrix(1,0,0,1,194.723,124.276)">
                <path d="M0,-4.809C5.129,-24.873 41.774,-21.436 43.773,-56.564C45.772,-91.692 33.421,-110.454 65.451,-122.708C97.481,-134.962 122.523,-131.365 121.795,-132.405C121.066,-133.445 129.503,-137.203 146.388,-130.873C163.274,-124.542 180.238,-114.583 177.4,-101.24C174.561,-87.897 147.647,-79.986 144.768,-67.941C141.89,-55.896 137.191,-39.173 150.963,-38.733C164.735,-38.292 188.43,-45.075 203.076,-40.985C217.723,-36.895 235.267,-28.688 242.607,-8.028C249.948,12.632 244.104,68.637 215.271,100.515C186.438,132.394 72.236,112.099 42.735,78.198C13.228,44.291 -7.088,22.916 0,-4.809Z" style="fill:none;fill-rule:nonzero;stroke:rgb(29,29,27);stroke-width:0.22px;"/>
            </g>
        </g>
        <g transform="matrix(2,0,0,2,0,2678.74)">
            <g transform="matrix(1,0,0,1,199.814,123.092)">
                <path d="M0,-4.303C4.883,-23.578 40.258,-20.189 42.07,-54.128C43.883,-88.066 31.888,-106.239 62.814,-118.07C93.739,-129.902 117.886,-126.437 117.148,-127.492C116.41,-128.547 124.528,-132.231 140.867,-126.154C157.206,-120.077 173.684,-110.437 170.972,-97.588C168.261,-84.74 142.315,-77.148 139.495,-65.548C136.675,-53.948 132.057,-37.829 145.322,-37.446C158.587,-37.063 181.439,-43.671 195.607,-39.794C209.774,-35.917 226.84,-28.12 234.066,-8.205C241.292,11.711 235.95,66.059 208.13,96.993C180.311,127.928 70.057,108.435 41.503,75.766C12.944,43.09 -6.758,22.373 0,-4.303Z" style="fill:none;fill-rule:nonzero;stroke:rgb(29,29,27);stroke-width:0.22px;"/>
            </g>
        </g>
        <g transform="matrix(2,0,0,2,0,2678.74)">
            <g transform="matrix(1,0,0,1,204.905,121.909)">
                <path d="M0,-3.798C4.637,-22.285 38.742,-18.944 40.368,-51.693C41.994,-84.441 30.356,-102.025 60.176,-113.434C89.997,-124.842 113.249,-121.51 112.501,-122.58C111.753,-123.649 119.553,-127.259 135.345,-121.435C151.138,-115.612 167.13,-106.292 164.545,-93.938C161.96,-81.583 136.983,-74.31 134.221,-63.155C131.46,-52.001 126.922,-36.486 139.68,-36.161C152.439,-35.835 174.449,-42.269 188.137,-38.604C201.824,-34.939 218.412,-27.554 225.525,-8.383C232.637,10.788 227.795,63.479 200.99,93.47C174.184,123.461 67.877,104.77 40.271,73.332C12.66,41.889 -6.427,21.829 0,-3.798Z" style="fill:none;fill-rule:nonzero;stroke:rgb(29,29,27);stroke-width:0.21px;"/>
            </g>
        </g>
        <g transform="matrix(2,0,0,2,0,2678.74)">
            <g transform="matrix(1,0,0,1,209.995,120.726)">
                <path d="M0,-3.293C4.391,-20.992 37.226,-17.698 38.665,-49.257C40.105,-80.817 28.823,-97.811 57.54,-108.797C86.256,-119.783 108.613,-116.584 107.854,-117.668C107.096,-118.751 114.578,-122.287 129.824,-116.717C145.07,-111.148 160.575,-102.147 158.117,-90.287C155.659,-78.426 131.65,-71.472 128.948,-60.763C126.245,-50.054 121.787,-35.144 134.038,-34.875C146.29,-34.607 167.459,-40.866 180.667,-37.414C193.875,-33.962 209.985,-26.987 216.983,-8.561C223.981,9.865 219.641,60.899 193.849,89.947C168.058,118.994 65.698,101.104 39.039,70.899C12.375,40.688 -6.097,21.285 0,-3.293Z" style="fill:none;fill-rule:nonzero;stroke:rgb(29,29,27);stroke-width:0.2px;"/>
            </g>
        </g>
        <g transform="matrix(2,0,0,2,0,2678.74)">
            <g transform="matrix(1,0,0,1,215.086,119.543)">
                <path d="M0,-2.788C4.145,-19.698 35.71,-16.453 36.963,-46.822C38.216,-77.192 27.29,-93.597 54.902,-104.161C82.514,-114.724 103.976,-111.658 103.208,-112.756C102.439,-113.854 109.603,-117.315 124.302,-111.999C139.002,-106.684 154.021,-98.003 151.69,-86.636C149.359,-75.27 126.318,-68.634 123.674,-58.371C121.031,-48.107 116.652,-33.801 128.397,-33.59C140.142,-33.378 160.469,-39.463 173.197,-36.224C185.925,-32.984 201.558,-26.42 208.442,-8.739C215.326,8.943 211.487,58.32 186.709,86.423C161.931,114.527 63.519,97.44 37.807,68.465C12.091,39.487 -5.767,20.741 0,-2.788Z" style="fill:none;fill-rule:nonzero;stroke:rgb(29,29,27);stroke-width:0.19px;"/>
            </g>
        </g>
        <g transform="matrix(2,0,0,2,0,2678.74)">
            <g transform="matrix(1,0,0,1,220.176,118.36)">
                <path d="M0,-2.283C3.899,-18.405 34.194,-15.207 35.26,-44.387C36.327,-73.567 25.758,-89.383 52.265,-99.524C78.773,-109.665 99.34,-106.731 98.561,-107.844C97.782,-108.956 104.628,-112.343 118.781,-107.281C132.933,-102.22 147.466,-93.858 145.262,-82.985C143.058,-72.113 120.986,-65.796 118.401,-55.978C115.816,-46.16 111.517,-32.458 122.755,-32.304C133.993,-32.15 153.479,-38.06 165.727,-35.034C177.976,-32.007 193.131,-25.854 199.9,-8.917C206.67,8.02 203.332,55.74 179.568,82.9C155.805,110.06 61.34,93.775 36.575,66.031C11.807,38.286 -5.436,20.197 0,-2.283Z" style="fill:none;fill-rule:nonzero;stroke:rgb(29,29,27);stroke-width:0.19px;"/>
            </g>
        </g>
        <g transform="matrix(2,0,0,2,0,2678.74)">
            <g transform="matrix(1,0,0,1,225.267,117.178)">
                <path d="M0,-1.778C3.653,-17.112 32.678,-13.962 33.558,-41.952C34.438,-69.942 24.225,-85.169 49.628,-94.888C75.031,-104.606 94.703,-101.805 93.914,-102.932C93.125,-104.059 99.653,-107.371 113.259,-102.563C126.865,-97.755 140.912,-89.713 138.835,-79.335C136.758,-68.956 115.654,-62.958 113.128,-53.586C110.601,-44.213 106.382,-31.115 117.114,-31.019C127.845,-30.922 146.488,-36.658 158.257,-33.844C170.026,-31.029 184.703,-25.287 191.359,-9.095C198.015,7.097 195.178,53.16 172.428,79.377C149.678,105.593 59.161,90.11 35.343,63.598C11.523,37.085 -5.105,19.652 0,-1.778Z" style="fill:none;fill-rule:nonzero;stroke:rgb(29,29,27);stroke-width:0.18px;"/>
            </g>
        </g>
        <g transform="matrix(2,0,0,2,0,2678.74)">
            <g transform="matrix(1,0,0,1,230.358,115.995)">
                <path d="M0,-1.273C3.407,-15.819 31.162,-12.716 31.856,-39.517C32.549,-66.317 22.692,-80.955 46.991,-90.251C71.289,-99.547 90.066,-96.878 89.267,-98.02C88.468,-99.161 94.678,-102.399 107.738,-97.845C120.797,-93.291 134.357,-85.568 132.407,-75.684C130.457,-65.8 110.322,-60.12 107.854,-51.193C105.386,-42.266 101.247,-29.772 111.472,-29.733C121.696,-29.694 139.498,-35.255 150.788,-32.653C162.077,-30.052 176.276,-24.721 182.818,-9.273C189.359,6.175 187.024,50.58 165.288,75.853C143.551,101.126 56.982,86.445 34.11,61.164C11.239,35.884 -4.774,19.108 0,-1.273Z" style="fill:none;fill-rule:nonzero;stroke:rgb(29,29,27);stroke-width:0.17px;"/>
            </g>
        </g>
        <g transform="matrix(2,0,0,2,0,2678.74)">
            <g transform="matrix(1,0,0,1,235.448,114.813)">
                <path d="M0,-0.769C3.162,-14.527 29.646,-11.472 30.153,-37.082C30.661,-62.693 21.16,-76.742 44.354,-85.616C67.548,-94.489 85.43,-91.953 84.621,-93.109C83.812,-94.265 89.703,-97.428 102.216,-93.128C114.729,-88.828 127.803,-81.424 125.98,-72.034C124.157,-62.644 104.99,-57.284 102.581,-48.802C100.172,-40.32 96.113,-28.43 105.83,-28.448C115.548,-28.467 132.508,-33.853 143.318,-31.464C154.127,-29.075 167.849,-24.155 174.276,-9.452C180.704,5.251 178.869,48 158.147,72.329C137.425,96.659 54.804,82.779 32.878,58.73C10.955,34.683 -4.443,18.563 0,-0.769Z" style="fill:none;fill-rule:nonzero;stroke:rgb(29,29,27);stroke-width:0.17px;"/>
            </g>
        </g>
        <g transform="matrix(2,0,0,2,0,2678.74)">
            <g transform="matrix(1,0,0,1,240.539,113.63)">
                <path d="M0,-0.264C2.916,-13.234 28.13,-10.226 28.451,-34.647C28.772,-59.069 19.627,-72.528 41.717,-80.979C63.806,-89.43 80.793,-87.026 79.974,-88.197C79.155,-89.367 84.728,-92.456 96.695,-88.41C108.661,-84.364 121.249,-77.279 119.552,-68.384C117.856,-59.488 99.657,-54.446 97.307,-46.41C94.957,-38.373 90.978,-27.087 100.189,-27.163C109.399,-27.239 125.518,-32.451 135.848,-30.274C146.178,-28.098 159.421,-23.589 165.735,-9.63C172.048,4.328 170.715,45.42 151.007,68.806C131.298,92.192 52.625,79.115 31.646,56.296C10.671,33.482 -4.111,18.019 0,-0.264Z" style="fill:none;fill-rule:nonzero;stroke:rgb(29,29,27);stroke-width:0.16px;"/>
            </g>
        </g>
        <g transform="matrix(2,0,0,2,0,2678.74)">
            <g transform="matrix(1,0,0,1,245.629,112.447)">
                <path d="M0,0.241C2.671,-11.941 26.614,-8.98 26.748,-32.212C26.883,-55.444 18.095,-68.314 39.08,-76.343C60.065,-84.371 76.156,-82.1 75.327,-83.285C74.498,-84.469 79.753,-87.484 91.173,-83.692C102.593,-79.9 114.694,-73.135 113.125,-64.733C111.556,-56.331 94.325,-51.608 92.034,-44.017C89.742,-36.426 85.843,-25.744 94.547,-25.877C103.251,-26.011 118.528,-31.048 128.378,-29.084C138.228,-27.12 150.994,-23.022 157.193,-9.808C163.393,3.406 162.561,42.84 143.866,65.283C125.171,87.725 50.446,75.45 30.414,53.862C10.388,32.281 -3.779,17.474 0,0.241Z" style="fill:none;fill-rule:nonzero;stroke:rgb(29,29,27);stroke-width:0.15px;"/>
            </g>
        </g>
        <g transform="matrix(2,0,0,2,0,2678.74)">
            <g transform="matrix(1,0,0,1,250.72,111.264)">
                <path d="M0,0.746C2.426,-10.648 25.098,-7.735 25.046,-29.777C24.994,-51.819 16.562,-64.1 36.443,-71.706C56.323,-79.312 71.52,-77.173 70.68,-78.372C69.841,-79.572 74.778,-82.512 85.651,-78.974C96.525,-75.435 108.14,-68.99 106.697,-61.082C105.255,-53.174 88.993,-48.77 86.76,-41.625C84.527,-34.479 80.708,-24.401 88.905,-24.592C97.102,-24.782 111.537,-29.645 120.908,-27.894C130.279,-26.142 142.567,-22.455 148.652,-9.986C154.737,2.483 154.407,40.261 136.726,61.759C119.045,83.258 48.268,71.786 29.182,51.429C10.104,31.081 -3.446,16.93 0,0.746Z" style="fill:none;fill-rule:nonzero;stroke:rgb(29,29,27);stroke-width:0.15px;"/>
            </g>
        </g>
        <g transform="matrix(2,0,0,2,0,2678.74)">
            <g transform="matrix(1,0,0,1,255.811,110.082)">
                <path d="M0,1.251C2.182,-9.355 23.582,-6.489 23.343,-27.342C23.105,-48.194 15.029,-59.886 33.805,-67.07C52.582,-74.253 66.883,-72.247 66.034,-73.461C65.184,-74.674 69.803,-77.54 80.13,-74.256C90.457,-70.971 101.585,-64.845 100.27,-57.431C98.955,-50.018 83.661,-45.932 81.487,-39.232C79.313,-32.533 75.573,-23.058 83.264,-23.306C90.954,-23.554 104.547,-28.243 113.438,-26.704C122.329,-25.165 134.14,-21.889 140.111,-10.164C146.082,1.56 146.252,37.681 129.585,58.236C112.918,78.791 46.09,68.122 27.95,48.995C9.821,29.881 -3.113,16.385 0,1.251Z" style="fill:none;fill-rule:nonzero;stroke:rgb(29,29,27);stroke-width:0.14px;"/>
            </g>
        </g>
        <g transform="matrix(2,0,0,2,0,2678.74)">
            <g transform="matrix(1,0,0,1,260.901,108.899)">
                <path d="M0,1.756C1.937,-8.063 22.066,-5.244 21.641,-24.906C21.216,-44.569 13.497,-55.672 31.168,-62.433C48.84,-69.194 62.247,-67.32 61.387,-68.549C60.527,-69.777 64.828,-72.568 74.608,-69.538C84.389,-66.507 95.031,-60.7 93.842,-53.781C92.654,-46.861 78.329,-43.094 76.213,-36.84C74.098,-30.586 70.438,-21.715 77.622,-22.021C84.805,-22.326 97.557,-26.84 105.969,-25.514C114.38,-24.188 125.712,-21.322 131.569,-10.342C137.426,0.637 138.098,35.101 122.445,54.713C106.792,74.324 43.912,64.458 26.717,46.562C9.538,28.681 -2.779,15.84 0,1.756Z" style="fill:none;fill-rule:nonzero;stroke:rgb(29,29,27);stroke-width:0.13px;"/>
            </g>
        </g>
        <g transform="matrix(2,0,0,2,0,2678.74)">
            <g transform="matrix(1,0,0,1,265.992,107.716)">
                <path d="M0,2.261C1.694,-6.771 20.55,-3.998 19.938,-22.471C19.327,-40.944 11.964,-51.458 28.531,-57.797C45.098,-64.135 57.61,-62.394 56.74,-63.636C55.87,-64.879 59.853,-67.596 69.087,-64.819C78.321,-62.043 88.476,-56.556 87.415,-50.13C86.353,-43.704 72.996,-40.256 70.94,-34.447C68.883,-28.639 65.303,-20.372 71.98,-20.735C78.657,-21.098 90.567,-25.437 98.499,-24.324C106.43,-23.21 117.285,-20.756 123.028,-10.52C128.77,-0.285 129.943,32.521 115.304,51.189C100.665,69.857 41.734,60.795 25.485,44.128C9.255,27.481 -2.444,15.295 0,2.261Z" style="fill:none;fill-rule:nonzero;stroke:rgb(29,29,27);stroke-width:0.13px;"/>
            </g>
        </g>
        <g transform="matrix(2,0,0,2,0,2678.74)">
            <g transform="matrix(1,0,0,1,271.082,106.533)">
                <path d="M0,2.766C1.45,-5.479 19.034,-2.753 18.236,-20.036C17.438,-37.319 10.432,-47.244 25.894,-53.16C41.357,-59.076 52.973,-57.467 52.093,-58.725C51.214,-59.982 54.878,-62.624 63.565,-60.102C72.253,-57.578 81.922,-52.411 80.987,-46.479C80.053,-40.548 67.664,-37.419 65.666,-32.055C63.668,-26.692 60.169,-19.03 66.339,-19.45C72.509,-19.87 83.577,-24.035 91.029,-23.134C98.481,-22.233 108.858,-20.189 114.486,-10.699C120.115,-1.208 121.789,29.942 108.164,47.666C94.538,65.39 39.557,57.131 24.253,41.694C8.972,26.281 -2.108,14.75 0,2.766Z" style="fill:none;fill-rule:nonzero;stroke:rgb(29,29,27);stroke-width:0.12px;"/>
            </g>
        </g>
        <g transform="matrix(2,0,0,2,0,2678.74)">
            <g transform="matrix(1,0,0,1,276.173,105.349)">
                <path d="M0,3.272C1.208,-4.187 17.518,-1.506 16.533,-17.6C15.549,-33.693 8.899,-43.029 23.257,-48.522C37.615,-54.016 48.337,-52.54 47.447,-53.811C46.557,-55.083 49.903,-57.652 58.044,-55.382C66.185,-53.113 75.368,-48.265 74.56,-42.827C73.752,-37.39 62.332,-34.58 60.393,-29.662C58.454,-24.744 55.034,-17.686 60.697,-18.163C66.36,-18.641 76.587,-22.631 83.559,-21.942C90.531,-21.254 100.43,-19.621 105.945,-10.875C111.459,-2.13 113.635,27.363 101.023,44.144C88.412,60.924 37.38,53.469 23.021,39.262C8.69,25.083 -1.77,14.205 0,3.272Z" style="fill:none;fill-rule:nonzero;stroke:rgb(29,29,27);stroke-width:0.11px;"/>
            </g>
        </g>
        <g transform="matrix(2,0,0,2,0,2678.74)">
            <g transform="matrix(1,0,0,1,281.264,104.167)">
                <path d="M0,3.777C0.966,-2.896 16.002,-0.261 14.831,-15.165C13.66,-30.069 7.366,-38.816 20.62,-43.886C33.874,-48.957 43.7,-47.613 42.8,-48.899C41.9,-50.185 44.928,-52.68 52.522,-50.664C60.117,-48.649 68.813,-44.12 68.132,-39.177C67.452,-34.234 57,-31.742 55.119,-27.269C53.239,-22.797 49.899,-16.343 55.055,-16.878C60.212,-17.413 69.596,-21.228 76.089,-20.752C82.582,-20.276 92.003,-19.055 97.403,-11.054C102.804,-3.052 105.481,24.783 93.883,40.62C82.285,56.457 35.204,49.807 21.789,36.828C8.409,23.883 -1.431,13.658 0,3.777Z" style="fill:none;fill-rule:nonzero;stroke:rgb(29,29,27);stroke-width:0.1px;"/>
            </g>
        </g>
        <g transform="matrix(2,0,0,2,0,2678.74)">
            <g transform="matrix(1,0,0,1,286.354,102.985)">
                <path d="M0,4.281C0.726,-1.608 14.486,0.984 13.129,-12.73C11.771,-26.445 5.834,-34.602 17.983,-39.25C30.132,-43.898 39.063,-42.688 38.153,-43.988C37.243,-45.289 39.953,-47.709 47.001,-45.947C54.048,-44.186 62.259,-39.976 61.705,-35.527C61.151,-31.078 51.668,-28.905 49.846,-24.878C48.024,-20.851 44.764,-15.001 49.414,-15.593C54.063,-16.185 62.606,-19.826 68.619,-19.563C74.632,-19.3 83.576,-18.489 88.862,-11.233C94.148,-3.976 97.326,22.203 86.742,37.096C76.159,51.99 33.028,46.144 20.557,34.394C8.128,22.684 -1.088,13.109 0,4.281Z" style="fill:none;fill-rule:nonzero;stroke:rgb(29,29,27);stroke-width:0.1px;"/>
            </g>
        </g>
        <g transform="matrix(2,0,0,2,0,2678.74)">
            <g transform="matrix(1,0,0,1,291.445,101.802)">
                <path d="M0,4.786C0.487,-0.32 12.97,2.23 11.426,-10.295C9.882,-22.82 4.301,-30.388 15.346,-34.614C26.391,-38.839 34.427,-37.762 33.507,-39.076C32.586,-40.391 34.978,-42.737 41.479,-41.229C47.98,-39.722 55.704,-35.832 55.278,-31.876C54.851,-27.921 46.336,-26.067 44.573,-22.486C42.809,-18.904 39.629,-13.658 43.772,-14.308C47.915,-14.957 55.616,-18.424 61.15,-18.373C66.683,-18.322 75.149,-17.923 80.321,-11.411C85.493,-4.899 89.172,19.623 79.602,33.573C70.032,47.523 30.854,42.482 19.325,31.96C7.847,21.485 -0.742,12.56 0,4.786Z" style="fill:none;fill-rule:nonzero;stroke:rgb(29,29,27);stroke-width:0.09px;"/>
            </g>
        </g>
        <g transform="matrix(2,0,0,2,0,2678.74)">
            <g transform="matrix(1,0,0,1,296.535,100.619)">
                <path d="M0,5.291C0.251,0.965 11.454,3.475 9.724,-7.86C7.993,-19.195 2.768,-26.175 12.709,-29.978C22.649,-33.78 29.79,-32.835 28.86,-34.164C27.929,-35.494 30.003,-37.765 35.958,-36.511C41.912,-35.257 49.15,-31.687 48.85,-28.226C48.55,-24.765 41.004,-23.229 39.299,-20.093C37.595,-16.957 34.495,-12.315 38.13,-13.022C41.766,-13.729 48.626,-17.021 53.68,-17.183C58.733,-17.345 66.721,-17.356 71.779,-11.589C76.837,-5.821 81.018,17.043 72.462,30.049C63.905,43.056 28.68,38.821 18.092,29.526C7.569,20.288 -0.39,12.007 0,5.291Z" style="fill:none;fill-rule:nonzero;stroke:rgb(29,29,27);stroke-width:0.08px;"/>
            </g>
        </g>
        <g transform="matrix(2,0,0,2,0,2678.74)">
            <g transform="matrix(1,0,0,1,301.626,99.4361)">
                <path d="M0,5.796C0.018,2.244 9.938,4.721 8.021,-5.425C6.105,-15.57 1.236,-21.961 10.072,-25.341C18.907,-28.721 25.154,-27.908 24.213,-29.252C23.273,-30.596 25.028,-32.793 30.436,-31.793C35.844,-30.793 42.595,-27.542 42.423,-24.575C42.25,-21.608 35.671,-20.391 34.026,-17.701C32.38,-15.01 29.36,-10.972 32.489,-11.736C35.618,-12.501 41.636,-15.618 46.21,-15.993C50.784,-16.367 58.294,-16.79 63.238,-11.767C68.182,-6.744 72.863,14.463 65.321,26.526C57.779,38.589 26.509,35.162 16.86,27.093C7.291,19.091 -0.029,11.448 0,5.796Z" style="fill:none;fill-rule:nonzero;stroke:rgb(29,29,27);stroke-width:0.08px;"/>
            </g>
        </g>
        <g transform="matrix(2,0,0,2,0,2678.74)">
            <g transform="matrix(1,0,0,1,306.717,98.2534)">
                <path d="M0,6.301C-0.21,3.512 8.422,5.966 6.319,-2.99C4.216,-11.945 -0.297,-17.747 7.434,-20.705C15.166,-23.662 20.517,-22.982 19.566,-24.34C18.616,-25.699 20.053,-27.821 24.915,-27.075C29.776,-26.329 36.041,-23.397 35.995,-20.924C35.949,-18.451 30.339,-17.554 28.752,-15.308C27.165,-13.063 24.225,-9.629 26.847,-10.451C29.469,-11.273 34.646,-14.216 38.74,-14.803C42.834,-15.39 49.867,-16.223 54.696,-11.945C59.526,-7.667 64.709,11.884 58.181,23.003C51.652,34.122 24.34,31.503 15.628,24.659C7.017,17.894 0.345,10.877 0,6.301Z" style="fill:none;fill-rule:nonzero;stroke:rgb(29,29,27);stroke-width:0.07px;"/>
            </g>
        </g>
        <g transform="matrix(2,0,0,2,0,2678.74)">
            <g transform="matrix(1,0,0,1,311.807,97.0705)">
                <path d="M0,6.806C-0.435,4.756 6.906,7.212 4.616,-0.554C2.327,-8.32 -1.83,-13.533 4.797,-16.068C11.424,-18.603 15.88,-18.056 14.919,-19.428C13.959,-20.801 15.078,-22.849 19.393,-22.357C23.708,-21.864 29.487,-19.252 29.568,-17.274C29.648,-15.295 25.007,-14.716 23.479,-12.916C21.95,-11.116 19.09,-8.286 21.205,-9.165C23.321,-10.045 27.655,-12.813 31.27,-13.613C34.885,-14.412 41.439,-15.656 46.155,-12.123C50.871,-8.589 56.555,9.304 51.04,19.48C45.526,29.655 22.174,27.846 14.396,22.226C6.746,16.699 0.737,10.276 0,6.806Z" style="fill:none;fill-rule:nonzero;stroke:rgb(29,29,27);stroke-width:0.06px;"/>
            </g>
        </g>
        <g transform="matrix(2,0,0,2,0,2678.74)">
            <g transform="matrix(1,0,0,1,316.898,95.8877)">
                <path d="M0,7.311C-0.964,6.13 5.39,8.457 2.914,1.881C0.438,-4.696 -3.362,-9.319 2.16,-11.432C7.683,-13.544 11.244,-13.129 10.273,-14.516C9.302,-15.903 10.103,-17.877 13.871,-17.639C17.64,-17.4 22.932,-15.108 23.14,-13.623C23.348,-12.138 19.675,-11.878 18.205,-10.524C16.736,-9.169 13.955,-6.943 15.564,-7.88C17.172,-8.817 20.665,-11.41 23.8,-12.423C26.935,-13.435 33.012,-15.09 37.614,-12.301C42.215,-9.512 48.401,6.724 43.9,15.956C39.399,25.188 20.016,24.189 13.164,19.792C6.481,15.503 0.574,9.8 0,7.311Z" style="fill:none;fill-rule:nonzero;stroke:rgb(29,29,27);stroke-width:0.06px;"/>
            </g>
        </g>
        <g transform="matrix(2,0,0,2,0,2678.74)">
            <g transform="matrix(1,0,0,1,321.989,93.0878)">
                <path d="M0,9.433C-1.213,9.04 3.874,11.32 1.211,5.933C-1.451,0.546 -4.895,-3.488 -0.477,-5.178C3.941,-6.868 6.607,-6.586 5.626,-7.987C4.645,-9.389 5.128,-11.288 8.35,-11.304C11.572,-11.319 16.378,-9.346 16.713,-8.355C17.047,-7.364 14.343,-7.423 12.932,-6.514C11.521,-5.605 8.82,-3.983 9.922,-4.977C11.024,-5.971 13.675,-8.391 16.33,-9.616C18.986,-10.84 24.585,-12.906 29.072,-10.862C33.56,-8.818 40.246,5.762 36.759,14.05C33.272,22.339 17.867,22.151 11.932,18.976C6.226,15.923 0.901,10.872 0,9.433Z" style="fill:none;fill-rule:nonzero;stroke:rgb(29,29,27);stroke-width:0.05px;"/>
            </g>
        </g>
        <g transform="matrix(2,0,0,2,0,2678.74)">
            <g transform="matrix(1,0,0,1,327.079,88.1181)">
                <path d="M0,13.725C-1.461,14.12 2.358,16.352 -0.491,12.155C-3.34,7.958 -6.427,4.513 -3.114,3.246C0.2,1.978 1.97,2.128 0.979,0.712C-0.012,-0.704 0.153,-2.529 2.828,-2.798C5.504,-3.068 9.823,-1.414 10.285,-0.917C10.747,-0.421 9.011,-0.798 7.658,-0.335C6.306,0.129 3.685,1.147 4.281,0.095C4.875,-0.956 6.685,-3.201 8.861,-4.638C11.036,-6.076 16.158,-8.553 20.531,-7.253C24.904,-5.954 32.092,6.969 29.619,14.314C27.146,21.659 15.738,22.278 10.7,20.329C5.989,18.507 1.227,14.115 0,13.725Z" style="fill:none;fill-rule:nonzero;stroke:rgb(29,29,27);stroke-width:0.04px;"/>
            </g>
        </g>
        <g transform="matrix(2,0,0,2,0,2678.74)">
            <g transform="matrix(1,0,0,1,332.17,83.3143)">
                <path d="M0,17.851C-1.821,18.854 0.842,21.219 -2.194,18.211C-5.229,15.204 -7.96,12.348 -5.751,11.503C-3.542,10.658 -2.666,10.675 -3.667,9.245C-4.669,7.814 -4.822,6.064 -2.693,5.541C-0.564,5.017 3.269,6.352 3.858,6.354C4.446,6.357 3.678,5.661 2.385,5.679C1.091,5.697 -1.449,6.111 -1.361,5.002C-1.273,3.893 -0.305,1.823 1.391,0.173C3.087,-1.477 7.73,-4.365 11.989,-3.81C16.249,-3.255 23.938,8.01 22.478,14.411C21.019,20.813 13.637,22.216 9.467,21.516C5.779,20.898 1.479,17.036 0,17.851Z" style="fill:none;fill-rule:nonzero;stroke:rgb(29,29,27);stroke-width:0.03px;"/>
            </g>
        </g>
        <g transform="matrix(2,0,0,2,0,2678.74)">
            <g transform="matrix(1,0,0,1,337.26,82.0624)">
                <path d="M0,18.425C-2.008,20.346 -0.674,22.534 -3.896,20.716C-7.118,18.898 -9.493,16.631 -8.388,16.209C-7.284,15.786 -7.303,15.671 -8.314,14.226C-9.325,12.781 -9.797,11.105 -8.215,10.328C-6.632,9.551 -3.286,10.566 -2.57,10.074C-1.854,9.583 -1.654,8.567 -2.889,8.14C-4.124,7.713 -6.584,7.523 -7.003,6.356C-7.421,5.19 -7.296,3.294 -6.079,1.432C-4.863,-0.431 -0.697,-3.729 3.448,-3.919C7.593,-4.109 15.783,5.499 15.338,10.957C14.893,16.415 11.553,18.516 8.235,19.152C5.585,19.66 1.837,16.668 0,18.425Z" style="fill:none;fill-rule:nonzero;stroke:rgb(29,29,27);stroke-width:0.03px;"/>
            </g>
        </g>
        <g transform="matrix(2,0,0,2,0,2678.74)">
            <g transform="matrix(1,0,0,1,331.326,78.7817)">
                <path d="M0,22.943C0,22.943 -0.914,22.695 -1.936,21.236C-2.957,19.776 -3.747,18.175 -2.711,17.144C-1.675,16.113 1.185,16.808 2.028,15.823C2.871,14.837 4.039,13.503 2.863,12.63C1.687,11.758 -0.694,10.963 -1.619,9.74C-2.545,8.516 -3.26,6.795 -2.524,4.72C-1.787,2.645 1.901,-1.065 5.932,-1.999C9.963,-2.934 18.654,5.018 19.223,9.532C19.791,14.046 20.351,16.723 18.028,18.816C16.3,20.374 13.232,18.269 11.025,21.028C8.818,23.787 8.835,25.877 5.427,25.249C2.018,24.621 0,22.943 0,22.943Z" style="fill:none;fill-rule:nonzero;stroke:rgb(29,29,27);stroke-width:0.02px;"/>
            </g>
        </g>
    </g>
</svg>
