<?xml version="1.0" encoding="UTF-8" standalone="no"?>
<!DOCTYPE svg PUBLIC "-//W3C//DTD SVG 1.1//EN" "http://www.w3.org/Graphics/SVG/1.1/DTD/svg11.dtd">
<svg width="100%" height="100%" viewBox="0 0 441 452" version="1.1" xmlns="http://www.w3.org/2000/svg" xmlns:xlink="http://www.w3.org/1999/xlink" xml:space="preserve" xmlns:serif="http://www.serif.com/" style="fill-rule:evenodd;clip-rule:evenodd;stroke-linecap:round;stroke-linejoin:round;stroke-miterlimit:1.5;">
    <g transform="matrix(1,0,0,1,-1845.75,-960.308)">
        <path d="M2066.01,960.516L2100.96,1033.09L2163.95,982.868L2163.95,1063.42L2242.48,1045.5L2207.53,1118.08L2286.06,1136L2223.08,1186.23L2286.06,1236.45L2207.53,1254.38L2242.48,1326.95L2163.95,1309.03L2163.95,1389.58L2100.96,1339.36L2066.01,1411.93L2031.06,1339.36L1968.08,1389.58L1968.08,1309.03L1889.55,1326.95L1924.5,1254.38L1845.96,1236.45L1908.94,1186.23L1845.96,1136L1924.5,1118.08L1889.55,1045.5L1968.08,1063.42L1968.08,982.868L2031.06,1033.09L2066.01,960.516Z" style="stroke:black;stroke-width:0.42px;"/>
    </g>
</svg>
