<?xml version="1.0" encoding="UTF-8" standalone="no"?>
<!DOCTYPE svg PUBLIC "-//W3C//DTD SVG 1.1//EN" "http://www.w3.org/Graphics/SVG/1.1/DTD/svg11.dtd">
<svg width="100%" height="100%" viewBox="0 0 25 25" version="1.1" xmlns="http://www.w3.org/2000/svg" xmlns:xlink="http://www.w3.org/1999/xlink" xml:space="preserve" xmlns:serif="http://www.serif.com/" style="fill-rule:evenodd;clip-rule:evenodd;stroke-linejoin:round;stroke-miterlimit:2;">
    <g transform="matrix(42,0,0,42,-4.55273,24.2812)">
        <path d="M0.355,0L0.355,-0.247L0.108,-0.247L0.108,-0.332L0.355,-0.332L0.355,-0.578L0.44,-0.578L0.44,-0.332L0.687,-0.332L0.687,-0.247L0.44,-0.247L0.44,0L0.355,0Z" style="fill:rgb(29,29,27);fill-rule:nonzero;"/>
    </g>
    <g transform="matrix(42,0,0,42,-4.55273,24.2812)">
        <path d="M0.355,0L0.355,-0.247L0.108,-0.247L0.108,-0.332L0.355,-0.332L0.355,-0.578L0.44,-0.578L0.44,-0.332L0.687,-0.332L0.687,-0.247L0.44,-0.247L0.44,0L0.355,0Z" style="fill:rgb(29,29,27);fill-rule:nonzero;"/>
    </g>
</svg>
